<?xml version="1.0" encoding="UTF-8"?>
<svg width="212px" height="129px" viewBox="0 0 212 129" version="1.1" xmlns="http://www.w3.org/2000/svg" xmlns:xlink="http://www.w3.org/1999/xlink">
    <!-- Generator: Sketch 60.1 (88133) - https://sketch.com -->
    <title>404</title>
    <desc>Created with Sketch.</desc>
    <g id="home" stroke="none" stroke-width="1" fill="none" fill-rule="evenodd">
        <g id="&gt;=768/unsubcsribe备份" transform="translate(-534.000000, -169.000000)">
            <g id="unsubscribe" transform="translate(497.000000, 169.000000)">
                <g id="btns">
                    <g id="404" transform="translate(37.000000, 0.000000)">
                        <path d="M108,23 C124.568542,23 138,36.4314575 138,53 L138,99 C138,115.568542 124.568542,129 108,129 C91.4314575,129 78,115.568542 78,99 L78,53 C78,36.4314575 91.4314575,23 108,23 Z M108,32 C96.5191716,32 87.1901639,41.2130397 87.0028704,52.6492257 L87,53 L87,99 C87,110.59798 96.4020203,120 108,120 C119.480828,120 128.809836,110.78696 128.99713,99.3507743 L129,99 L129,53 C129,41.4020203 119.59798,32 108,32 Z M71.3698483,13.5404873 L83.9727659,24.5898958 L78.6022241,30.7246007 L66,19.6751922 L71.3698483,13.5404873 Z M84.6936459,0.149897766 L94.3030671,18.7136258 L87.0665308,22.4652338 L77.4571095,3.90150575 L84.6936459,0.149897766 Z M103.948962,-8.8817842e-15 L105.698462,16.6761265 L97.5937635,17.5276291 L95.8442635,0.85150259 L103.948962,-8.8817842e-15 Z" id="形状结合" fill="#E95246"></path>
                        <polygon id="4" fill="#121212" fill-rule="nonzero" points="51.2491694 126 51.2491694 105.368771 62.013289 105.368771 62.013289 96.8770764 51.2491694 96.8770764 51.2491694 75.9468439 42.3986711 76.0066445 42.4584718 96.6378738 12.0797342 96.6378738 51.4883721 36.0598007 41.2624585 36 0.0598006645 96.6976744 0 105.368771 42.3986711 105.368771 42.3986711 126"></polygon>
                        <polygon id="4备份" fill="#121212" fill-rule="nonzero" points="200.249169 126 200.249169 105.368771 211.013289 105.368771 211.013289 96.8770764 200.249169 96.8770764 200.249169 75.9468439 191.398671 76.0066445 191.458472 96.6378738 161.079734 96.6378738 200.488372 36.0598007 190.262458 36 149.059801 96.6976744 149 105.368771 191.398671 105.368771 191.398671 126"></polygon>
                    </g>
                </g>
            </g>
        </g>
    </g>
</svg>