<?xml version="1.0" encoding="UTF-8"?>
<svg width="40px" height="40px" viewBox="0 0 40 40" version="1.1" xmlns="http://www.w3.org/2000/svg" xmlns:xlink="http://www.w3.org/1999/xlink">
    <!-- Generator: Sketch 55.1 (78136) - https://sketchapp.com -->
    <title>arrow</title>
    <desc>Created with Sketch.</desc>
    <g id="页面1" stroke="none" stroke-width="1" fill="none" fill-rule="evenodd">
        <g id="main_1920" transform="translate(-1840.000000, -508.000000)">
            <g id="arrow" transform="translate(40.000000, 508.000000)">
                <g transform="translate(1800.000000, 0.000000)">
                    <circle id="Oval" fill-opacity="0.2" fill="#000000" transform="translate(20.000000, 20.000000) rotate(-180.000000) translate(-20.000000, -20.000000) " cx="20" cy="20" r="20"></circle>
                    <path d="M26.9173398,15.7270905 C27.1624777,15.4239548 27.5929375,15.4239548 27.8380754,15.7270905 C28.0540696,15.9941873 28.0540696,16.3475429 27.8375065,16.6999983 L21.2612188,24.772387 C21.0160808,25.0755227 20.5856211,25.0755227 20.3421875,24.7744715 L13.666908,16.6992973 C13.4476863,16.4282094 13.4476863,15.9981784 13.666908,15.7270905 C13.9120459,15.4239548 14.3425057,15.4239548 14.5858739,15.724927 L20.8228232,23.2635229 L26.9173398,15.7270905 Z" id="Shape" fill="#FFFFFF" fill-rule="nonzero" transform="translate(20.751246, 20.249734) rotate(-450.000000) translate(-20.751246, -20.249734) "></path>
                </g>
            </g>
        </g>
    </g>
</svg>