<?xml version="1.0" encoding="UTF-8"?>
<svg width="130px" height="130px" viewBox="0 0 130 130" version="1.1" xmlns="http://www.w3.org/2000/svg" xmlns:xlink="http://www.w3.org/1999/xlink">
    <title>形状结合</title>
    <g id="页面-1" stroke="none" stroke-width="1" fill="none" fill-rule="evenodd">
        <g id="cicle" fill="#333333" fill-rule="nonzero">
            <path d="M72.0643281,0.332573548 L66.3322265,0 L65.7883996,9.41708557 L66.8007692,9.4640738 L67.0485471,5.18360627 L71.514841,5.44253121 L71.5716652,4.46653119 L67.1063174,4.20665102 L67.2895885,1.04772943 L72.0082591,1.32163149 L72.0643281,0.332573548 Z M119.973365,30.5400959 L121.665123,33.5481772 C122.118237,34.2469965 122.301148,35.0869508 122.175891,35.9306318 C121.999221,36.6945295 121.486494,37.3375609 120.806295,37.6658413 C120.142534,38.089549 119.324219,38.1947956 118.55717,37.9463989 C117.785258,37.6311324 117.156961,37.0419847 116.799862,36.3054277 L115.597479,34.1705958 L112.252676,36.0552272 L111.75217,35.1673142 L119.973365,30.5400959 Z M119.608528,31.9099552 L116.471005,33.6796285 L117.677789,35.8161422 C117.893394,36.2785068 118.252725,36.6565963 118.680357,36.8886228 L118.843773,36.9686654 C119.323623,37.1134006 119.843008,37.0370797 120.292415,36.7427158 C120.743506,36.5306084 121.075762,36.1275146 121.192292,35.6733248 C121.26584,35.1044452 121.131349,34.5281508 120.803902,34.0347631 L119.608528,31.9099552 Z M115.182955,24.0157704 L118.692703,28.7175224 L117.895918,29.3150139 L114.999855,25.4377511 L112.46394,27.3299172 L115.209801,31.007625 L114.410554,31.5969743 L111.668105,27.9234599 L109.029598,29.8913127 L111.92549,33.7756742 L111.128272,34.3734909 L107.624802,29.6550775 L115.182955,24.0157704 Z M108.726063,17.732049 L111.295847,20.3659439 C111.908078,20.916984 112.305235,21.6670892 112.419094,22.5203459 C112.398347,23.9949589 111.251535,25.2080004 109.751161,25.312004 C109.32629,25.2923287 108.913533,25.1840644 108.538024,24.997603 L108.405081,24.9248745 L108.408012,24.9889756 C108.403322,25.207364 108.375712,25.4244533 108.325435,25.6377215 L108.267611,25.8496225 L107.078431,29.5447302 L106.277199,28.7260006 L107.324855,25.4867139 C107.450144,25.169539 107.476472,24.8218738 107.409115,24.5190504 C107.30221,24.2253415 107.138318,23.9563487 106.922432,23.7222912 L105.517564,22.2867965 L102.688759,25.0496632 L101.97694,24.3223607 L108.726063,17.732049 Z M108.731782,19.1637265 L106.242681,21.5956579 L108.115251,23.5112201 C109.058301,24.4784866 109.888238,24.5869652 110.719857,23.8554768 L110.838683,23.7452664 C111.205491,23.4374534 111.413968,22.9807119 111.40888,22.5347133 C111.325285,21.9753142 111.045259,21.4639344 110.604653,21.0786503 L108.731782,19.1637265 Z M93.0273326,6.48667685 L93.9247997,6.96654857 L92.1009193,10.3830797 L97.7117207,9.04839925 L97.8865238,9.07090564 L99.1287608,9.7330749 L98.976,9.769 L99.8610312,10.3898292 L99.9756034,15.3226292 L104.655607,13.753116 L105.652944,14.4470687 L99.8401421,16.3971804 L97.2556738,20.0808313 L96.4103536,19.489781 L99.0024733,15.793679 L98.847,9.8 L92.3200478,11.3520679 L94.957864,18.2007221 L93.6860521,17.5231515 L93.5710343,17.3935703 L91.3767989,11.7464352 L89.490233,15.2883213 L88.5928612,14.8085005 L93.0273326,6.48667685 Z M83.637158,2.73300632 L84.4082112,3.01017319 L87.059966,11.9515858 L89.6092888,4.88432799 L90.5423315,5.21864725 L87.3402997,14.0893032 L86.5822466,13.8174168 L83.9234393,4.86193803 L81.3696205,11.9404781 L80.4376019,11.6005266 L83.637158,2.73300632 Z M73.9595548,0.572304266 L74.9571965,0.767505722 L73.8235102,6.5785865 C73.5851377,7.2579877 73.6808938,8.00997602 74.081928,8.60798345 C74.4829622,9.20599088 75.1423849,9.58009753 75.9141028,9.62603194 C76.6018155,9.81365971 77.3361921,9.71518983 77.9247076,9.37023989 C78.4962712,8.92991363 78.8662179,8.27784892 78.9538191,7.54301537 L80.0799768,1.76550795 L81.0911289,1.95844451 L79.9833471,7.63408297 C79.8629367,8.64298337 79.3463143,9.5626362 78.508153,10.2156601 C76.7298268,11.1386119 74.5498663,10.7141669 73.2205935,9.15259794 C72.719252,8.26963853 72.5875547,7.22425566 72.8500951,6.26230279 L73.9595548,0.572304266 Z M124.581492,39.1267945 L124.212763,38.1787889 L118.806506,40.2701859 C117.852684,40.5603201 117.037864,41.2279356 116.553728,42.1238286 C115.938886,44.0810294 116.740735,46.1523562 118.469646,47.1654809 C119.469322,47.5262606 120.522918,47.4733979 121.441302,47.0382365 L126.83516,44.9522864 L126.467193,43.9891781 L120.972878,46.1149926 C120.315594,46.4790236 119.562518,46.5157642 118.905697,46.2291018 C118.248876,45.9424394 117.763799,45.3653209 117.594458,44.6690582 C117.21849,43.9778381 117.18395,43.2204453 117.476654,42.5624995 C117.769358,41.9045536 118.355071,41.4230059 119.057276,41.262981 L124.581492,39.1267945 Z M118.46432,49.6203794 L127.666743,47.5585563 L128.437238,50.9973185 C128.664811,51.7701004 128.615856,52.5980266 128.289334,53.3582891 C127.967799,53.9578809 127.406337,54.3882085 126.767686,54.5422332 L126.591717,54.577309 C126.109233,54.7007199 125.599725,54.6642764 125.133561,54.4707978 C124.909385,54.3706389 124.702649,54.2382624 124.519379,54.0789071 L124.430352,53.9955176 L124.40158,54.1031996 C124.329961,54.332646 124.22236,54.55127 124.081237,54.7513189 L123.969147,54.8977516 C123.599578,55.3139939 123.101867,55.5952968 122.579651,55.6912214 C121.846378,55.9081746 121.053827,55.769952 120.419593,55.3032939 C119.80358,54.7580613 119.397002,54.0151246 119.272944,53.2185418 L118.46432,49.6203794 Z M122.872547,49.6913376 L119.659325,50.4103607 L120.242418,53.0067312 C120.315103,53.5078486 120.5334,53.9750688 120.84993,54.3359219 L120.973141,54.4661144 C121.341946,54.7370888 121.816201,54.818022 122.287895,54.6765993 C122.751761,54.6053173 123.156453,54.3232481 123.371623,53.9380127 C123.589296,53.4130527 123.618379,52.8289127 123.449305,52.2673433 L122.872547,49.6913376 Z M126.932402,48.7860855 L123.85265,49.4762282 L124.391608,51.8843007 C124.467399,52.3776174 124.691444,52.8346106 125.019639,53.1855939 L125.147509,53.3121073 C125.511136,53.5876638 125.983612,53.6752151 126.436872,53.5443982 C127.439213,53.3205382 127.781368,52.5738346 127.469347,51.1769858 L126.932402,48.7860855 Z M129.57324,57.4634856 L129.477722,56.4499928 L120.086187,57.3352672 L120.630193,63.0850881 L121.604828,62.9898689 L121.158364,58.2588667 L129.57324,57.4634856 Z M130,64.5466803 L129.9844,63.5289522 L120.552975,63.6845575 L120.568574,64.7022856 L130,64.5466803 Z M122.802336,66.5810816 C122.074482,66.8342764 121.446231,67.2977683 120.993657,67.9127324 C120.586499,68.4939003 120.333242,69.1618603 120.252542,69.8588915 L120.230404,70.1215282 C120.085462,71.3043753 120.451686,72.5103367 121.240607,73.4262165 L121.366726,73.5726311 L122.284498,73.1177579 L122.085956,72.8757861 C121.770594,72.4914411 121.529205,72.0519878 121.374018,71.5796883 C121.265305,71.2078408 121.215943,70.8158766 121.228726,70.4230588 L121.243875,70.1874197 C121.267916,69.2878633 121.698181,68.4660272 122.410149,67.9444254 C124.19713,66.9713875 126.427234,67.1536206 128.057086,68.425833 C128.603087,68.9865416 128.89259,69.7786864 128.839643,70.5836263 L128.819222,70.7850012 C128.787168,71.2745856 128.666788,71.7360703 128.462794,72.1624156 C128.235837,72.5949088 127.925682,72.9892975 127.551905,73.3177342 L127.315573,73.525397 L128.155025,74.1220664 L128.30331,73.9884609 C129.809178,72.6316648 130.268524,70.4589408 129.440626,68.6089123 C129.087128,67.9204428 128.544801,67.3637293 127.870815,66.9947677 C126.300831,66.198079 124.480765,66.0495264 122.802336,66.5810816 Z M99.3588794,108.456463 L104.80207,116.159385 L103.970626,116.744814 L101.730624,113.577838 L100.403184,119.189176 L100.304531,119.335197 L99.292,120.05 L99.3787262,120.090264 L98.2903698,120.684898 L93.8280508,118.570169 L93.1293835,123.455634 L92.0613819,124.027176 L92.9316158,117.961688 L90.8023687,113.995797 L91.7106421,113.509921 L93.8459795,117.485659 L99.19,120.002 L100.76845,113.337832 L93.4673946,112.618895 L94.6433222,111.786237 L94.8110468,111.741586 L100.844149,112.321041 L98.5300945,109.042772 L99.3588794,108.456463 Z M105.256384,102.468696 L111.724345,109.333019 L111.128577,109.893759 L101.953737,108.214045 L107.104359,113.683771 L106.378868,114.361186 L99.914634,107.50174 L100.498016,106.94446 L109.69296,108.62335 L104.531795,103.14926 L105.256384,102.468696 Z M113.620818,98.4391713 L118.199594,101.999631 L117.575833,102.804542 L112.898004,99.1637894 C112.399267,98.6451768 111.685565,98.3913771 110.971305,98.4786359 C110.257044,98.5658947 109.625458,98.9840437 109.235063,99.6503398 C108.756182,100.178903 108.512516,100.879247 108.556032,101.560638 C108.691472,102.26884 109.106017,102.892855 109.721371,103.30307 L114.365943,106.916428 L113.732934,107.732089 L109.168187,104.179638 C108.322684,103.614979 107.736079,102.737704 107.532564,101.694615 C107.511888,99.6905674 108.877351,97.9374492 110.825713,97.4665402 L110.873404,97.459805 C111.891062,97.4155588 112.882559,97.7710589 113.620818,98.4391713 Z M114.078097,90.7628076 L122.225108,95.5106029 L119.329511,100.472118 L118.47319,99.9720119 L120.855568,95.8880761 L118.122437,94.2956689 L115.865969,98.1590337 L115.022209,97.6642169 L117.274808,93.7997222 L113.564005,91.6383809 L114.078097,90.7628076 Z M77.2248761,119.242538 L78.830607,128.534707 L73.0472395,129.533628 L72.8771338,128.55718 L77.6464017,127.731241 L77.1085407,124.61315 L72.5860986,125.39497 L72.4199252,124.418109 L76.938218,123.636195 L76.3774481,120.393619 L71.6058367,121.219325 L71.4399683,120.240262 L77.2248761,119.242538 Z M84.9287089,116.904763 L87.7678205,125.898026 L84.2583308,127.004402 C83.4906677,127.301418 82.6428811,127.3185 81.828533,127.037447 C80.5223327,126.351587 79.9573567,124.781096 80.5405475,123.393663 C80.7505508,123.024251 81.0333818,122.705262 81.3687915,122.454132 L81.4911122,122.368443 L81.4368073,122.343203 C81.2439772,122.240519 81.0626992,122.11788 80.8952074,121.97674 L80.7323937,121.829486 L77.964462,119.094315 L79.0575393,118.749601 L81.47578,121.146265 C81.7015353,121.40254 81.9999232,121.584085 82.3014606,121.661248 C82.673329,121.707057 83.0507619,121.662007 83.414291,121.525503 L85.1445831,120.979195 L83.9555828,117.210275 L84.9287089,116.904763 Z M85.4324384,121.93922 L82.8817619,122.743319 C81.5933345,123.149514 81.1222726,123.841024 81.4001625,124.912611 L81.4449486,125.06829 C81.5522865,125.535439 81.8656096,125.928769 82.2655806,126.125221 C82.8028911,126.300511 83.3848211,126.280701 83.927158,126.062748 L86.4782793,125.256486 L85.4324384,121.93922 Z M69.4745772,120.392913 L70.4888631,120.347972 L70.8947878,129.771044 L67.4459164,129.91574 C66.6177665,130.005522 65.785379,129.789243 65.08961,129.295251 C64.4889164,128.791128 64.1480555,128.042732 64.1632801,127.288133 C64.0842579,126.503831 64.3617812,125.725519 64.9327183,125.155559 C65.5635357,124.611792 66.3724223,124.319125 67.1903681,124.333533 L69.6362563,124.229737 L69.4745772,120.392913 Z M69.6850622,125.235573 L67.2270046,125.334043 C66.6528969,125.316049 66.0919668,125.508227 65.6709416,125.854549 C65.3253101,126.216904 65.158068,126.71378 65.2157247,127.2467 C65.2008534,127.745229 65.4097395,128.224286 65.7611004,128.534087 C66.2370132,128.85717 66.8135235,128.997752 67.4032931,128.928519 L69.8384522,128.822722 L69.6850622,125.235573 Z M56.7879877,120.830628 C56.0142695,121.559619 55.5867244,122.524601 55.5632879,123.540826 L54.9951694,129.291789 L56.020619,129.393932 L56.5988945,123.535165 C56.5686559,122.783022 56.8745125,122.092805 57.4265577,121.634312 C57.9786029,121.175818 58.7133208,121.001801 59.4124156,121.163962 C60.1982612,121.140471 60.8895917,121.450977 61.3451052,122.008351 C61.8006188,122.565726 61.9671839,123.304956 61.7947203,124.003782 L61.2136168,129.896732 L62.2269805,130 L62.7942666,124.229194 C62.9641268,123.246039 62.7339429,122.218007 62.1522429,121.394281 L62.1221179,121.359092 C60.6830496,119.964746 58.4727566,119.745767 56.7879877,120.830628 Z M50.8399165,118.656187 L51.0610328,118.719085 L54.6331528,119.616242 L52.3408426,128.762964 L48.919546,127.909402 C48.1263994,127.763968 47.4087838,127.346597 46.8773402,126.712372 C46.4842634,126.154113 46.3515428,125.456719 46.5019191,124.814633 L46.5499668,124.641036 C46.6578137,124.153597 46.9199504,123.713905 47.3033019,123.382315 C47.5201347,123.205945 47.7640182,123.068476 48.0240936,122.97436 L48.0401394,122.968957 L47.9604871,122.896565 C47.7891186,122.730302 47.6433725,122.537072 47.5289782,122.322477 L47.4491505,122.157612 C47.2435441,121.640117 47.2155486,121.069024 47.3638686,120.558177 C47.5006248,119.806836 47.9790513,119.161802 48.6802856,118.802871 C49.3691141,118.529239 50.1243718,118.479174 50.8399165,118.656187 Z M48.7213358,123.817303 L48.5185893,123.865871 L48.3309828,123.926991 L48.2092355,123.995944 C47.9124943,124.182508 47.6936296,124.472361 47.5925493,124.818044 L47.5565568,124.969474 C47.3066147,125.966194 47.819705,126.60815 49.206158,126.957912 L51.5810579,127.550987 L52.3470119,124.490657 L49.954691,123.89104 C49.5543042,123.761748 49.1298544,123.737501 48.7213358,123.817303 Z M41.5942029,115.381504 L46.9624248,117.482008 L43.5215927,126.263535 L42.5738793,125.89114 L45.6615983,118.023432 L41.2371607,116.29222 L41.5942029,115.381504 Z M49.5602583,119.584122 L49.3527419,119.629071 L49.1656634,119.685551 L49.0469109,119.753718 C48.752497,119.943336 48.5377856,120.237444 48.43927,120.59764 L48.4042695,120.755944 C48.2583943,121.201192 48.3288612,121.689009 48.5786383,122.053846 C48.9488123,122.484713 49.456971,122.773901 50.0336021,122.875747 L52.5930335,123.512706 L53.3948449,120.321916 L50.815566,119.679586 C50.4094588,119.543327 49.9779553,119.511598 49.5602583,119.584122 Z M40.2209641,114.546293 L41.1363602,114.98928 L36.9959743,123.46323 L36.0812884,123.016687 L40.2209641,114.546293 Z M32.1508584,111.112222 C33.3250644,110.824698 34.5660826,111.044545 35.5700075,111.717928 L35.7795854,111.847343 C36.3643489,112.234277 36.8453426,112.761772 37.1798991,113.38775 C37.5217296,114.070751 37.6502085,114.840756 37.5483548,115.59979 C37.4241859,116.469625 37.1122856,117.302051 36.6405728,118.029111 L36.4875388,118.277911 C36.0637412,118.930486 35.5155305,119.494579 34.8727169,119.937804 C34.244561,120.367716 33.5011436,120.597718 32.7346895,120.597718 C31.9438048,120.580898 31.1735705,120.342165 30.5262704,119.917511 C29.4726053,119.325223 28.717751,118.315972 28.4473891,117.138015 L28.4043649,116.95056 L29.3112101,116.477501 L29.3894159,116.781251 C29.513677,117.263878 29.7249638,117.719789 30.0073376,118.119038 C30.2947783,118.49433 30.6514859,118.81107 31.0733127,119.061861 L31.2437373,119.171567 C31.9380081,119.584457 32.7766315,119.685507 33.5250738,119.452004 C35.3984757,118.577212 36.5721979,116.672372 36.5142856,114.638994 C36.3711249,113.768191 35.8334008,113.012456 35.0422516,112.582645 L34.8393528,112.461946 C34.4954546,112.271846 34.1241635,112.137499 33.7446018,112.065289 C33.2521239,111.990812 32.750138,112.00767 32.263768,112.115017 L31.9610823,112.181823 L31.9610823,111.158692 L32.1508584,111.112222 Z M13.5060326,95.0802341 L15.9447757,98.8249172 L19.5464292,96.4822291 L20.0993828,97.3387784 L12.1934311,102.4817 L9.06238377,97.6675843 L9.89401574,97.1259122 L12.4705917,101.08755 L15.1230435,99.360699 L12.6823527,95.6124025 L13.5060326,95.0802341 Z M13.0372151,86.6384818 L13.0805609,86.6549969 C14.878405,87.5396849 15.8287606,89.5469791 15.3588841,91.5418689 C14.9495078,92.4708608 14.1834272,93.1993087 13.2494254,93.5577016 L8.00797149,96.0375175 L7.57344693,95.1160077 L12.9271611,92.5878237 C13.6154652,92.3757775 14.1638018,91.8521774 14.4072968,91.1744595 C14.6507919,90.4967417 14.5610424,89.7439603 14.1406607,89.0950668 C13.8846437,88.4305668 13.3694275,87.8986901 12.7409162,87.6313763 C12.0483867,87.430671 11.3041195,87.5183915 10.6607234,87.8831934 L5.3424279,90.3994588 L4.90028862,89.4709243 L10.1255269,86.9974571 C11.0098191,86.4957008 12.0575037,86.3665342 13.0372151,86.6384818 Z M10.8145661,77.2587394 L11.044012,78.0290299 L5.39971108,85.4781747 L12.6138839,83.3456859 L12.8984839,84.2935304 L3.85426612,86.9716554 L3.62111488,86.1860452 L9.25537793,78.7540137 L2.0516863,80.8839484 L1.77198559,79.9311231 L10.8145661,77.2587394 Z M0,62.4163955 L5.01922419,65.9400654 L9.52110716,65.8368009 L9.54232056,66.8664479 L5.0321727,66.9688063 L0.39,70.579 L5.53118822,74.932834 L9.48065415,68.7453871 L9.68901645,70.1683445 L9.65284292,70.3378718 L6.40272232,75.4556694 L10.3757597,74.8785972 L10.5202942,75.8843155 L1.18649892,77.243783 L1.04218515,76.2357009 L4.8787827,75.6807376 L0.480662083,71.9558993 L0.395300963,71.8023595 L0.232,70.702 L0.201393744,70.7260789 L0.194,70.443 L0.189152627,70.408274 L0.193,70.412 L0.171533401,69.486081 L4.07298717,66.4638967 L0.0325051097,63.6331076 L0,62.4163955 Z M2.07024216,51.9687616 C3.26942542,51.1087742 4.92764701,51.3109171 5.88503311,52.4337978 L5.90267784,52.4571433 C6.13868942,52.8108509 6.29656745,53.207152 6.36979987,53.6199035 L6.39076985,53.7704494 L6.43764758,53.733901 C6.6167061,53.6065185 6.8089598,53.4991922 7.01109315,53.4136471 L7.21639691,53.3354264 L10.8946725,52.0917029 L10.7123495,53.2227057 L7.48594574,54.3037693 C7.15639456,54.3918041 6.86136991,54.5778663 6.65739487,54.8142924 C6.44895532,55.125311 6.31870543,55.4820512 6.27602361,55.8666585 L5.98538199,57.6603447 L9.8864133,58.2939836 L9.72449309,59.2985057 L0.412599956,57.7844522 L1.00437065,54.1545951 C1.08437125,53.3343439 1.45166604,52.5687329 2.07024216,51.9687616 Z M5.79812667,55.6865166 L5.78816628,55.7064342 L5.40845303,58.0555327 L0.989250519,57.3376806 L0.983274285,57.3725363 L9.31215215,58.7269289 L9.31514027,58.7050196 L5.41499586,58.0723589 L5.78269034,55.7996823 L5.79812667,55.6865166 Z M2.78747502,52.7045464 L2.66956826,52.7855272 L2.55442684,52.9111234 C2.27123342,53.2439548 2.08421795,53.6493231 2.01260894,54.0923348 L1.98904112,54.2843999 L1.55898481,56.9263834 L4.9963153,57.4840745 L5.42481839,54.8420966 C5.64073876,53.5073223 5.23475751,52.7757003 4.15299412,52.5432979 L3.99385351,52.5134824 C3.58029111,52.4122523 3.1457497,52.4827601 2.78747502,52.7045464 Z M5.11511367,52.3917419 C4.31558616,51.8001049 3.20531288,51.7670078 2.38934594,52.3491988 C2.28254957,52.4534693 2.18425975,52.564999 2.0949808,52.6828455 L1.96788355,52.8642349 C2.07236018,52.7060552 2.19319971,52.5576917 2.32881582,52.4215887 L2.3535567,52.3998454 C2.80332426,52.054502 3.37233387,51.9097161 3.91346268,51.9905199 L4.09260451,52.0258439 C4.5117707,52.093244 4.86198571,52.2230749 5.14226835,52.4126584 L5.11511367,52.3917419 Z M3.88736447,43.0169947 L4.83485285,43.3054009 L3.42655788,47.9356066 L6.45551239,48.854801 L7.79078818,44.4742517 L8.74051556,44.7621222 L7.40374149,49.1495805 L10.5532167,50.1066183 L11.9620993,45.4770695 L12.91198,45.7649864 L11.2009263,51.3772435 L2.17754251,48.6331344 L3.88736447,43.0169947 Z M9.82320598,36.0606645 L9.98846261,36.1394445 L10.1390515,36.2041882 C10.6782518,36.4562024 11.1148223,36.8835978 11.3822163,37.4220906 L11.4649905,37.6056147 L11.5289044,37.7791508 C11.7305664,38.5874926 11.6276387,39.4417677 11.2462196,40.1658566 L10.2354803,42.3965391 L13.7350609,43.9780326 L13.3173546,44.9050337 L4.72056566,41.0210739 L6.14403152,37.8755147 C6.43941552,37.0976906 7.00796832,36.454021 7.7614568,36.0561672 C8.42237716,35.7716589 9.16883484,35.775519 9.82320598,36.0606645 Z M8.26692141,36.9550969 L8.1248737,37.0038656 L7.97541549,37.0955611 C7.60616254,37.3412125 7.31217973,37.6863053 7.12334918,38.1001147 L7.04894681,38.2815792 L6.04414829,40.5013854 L9.32012046,41.9832502 L10.3336189,39.7447997 C10.577905,39.2970391 10.6693346,38.7836897 10.6029135,38.3019661 L10.5705966,38.1229921 C10.4029085,37.6514934 10.0347392,37.2786157 9.53276289,37.0900921 C9.14343226,36.8782269 8.6879083,36.8313259 8.26692141,36.9550969 Z M12.4881957,27.0117849 L17.3587689,30.1242796 C18.2542047,30.6068386 18.9207746,31.4258313 19.2204566,32.4463468 C19.4239314,34.4393433 18.2281091,36.3100562 16.2869492,36.9735942 C15.2809083,37.1138882 14.2609876,36.8518472 13.4630344,36.2546331 L8.57697382,33.1330576 L9.1236412,32.2761007 L14.1145695,35.4661218 C14.6593267,35.9370732 15.3940671,36.1240886 16.0977392,35.9709032 C16.8014113,35.8177177 17.3918778,35.3422123 17.7184797,34.6419678 C18.1453173,34.0710226 18.3222974,33.351399 18.2154836,32.6768755 C18.0162639,31.9842532 17.5461362,31.4012057 16.8954335,31.0502115 L11.9336902,27.8819088 L12.4881957,27.0117849 Z M20.4047157,21.4738537 L20.6638975,21.7062447 C20.9764276,22.0060563 21.199713,22.3893193 21.3077781,22.8186525 C21.35242,23.0246431 21.370429,23.2343248 21.3622124,23.4427059 L21.3413148,23.6710654 L21.4444077,23.6313169 C21.6710067,23.5538515 21.9100581,23.5115787 22.1539355,23.5070728 L22.3376292,23.5108148 C22.8913849,23.5625895 23.4125885,23.7955785 23.8015204,24.1577961 C24.4111308,24.6196666 24.7708678,25.3390235 24.773595,26.128003 C24.6975404,26.9471049 24.3403715,27.7146662 23.7733258,28.2889554 L21.3591491,31.065875 L14.2328364,24.8901112 L16.5460778,22.2251317 C17.0319572,21.5835787 17.7269294,21.1321101 18.5305216,20.9451002 C19.2049925,20.8442638 19.8869882,21.0391142 20.4047157,21.4738537 Z M22.0503684,24.5540357 L21.908061,24.564367 L21.7413253,24.6131769 C21.324226,24.7504432 20.9506845,24.9980522 20.65448,25.3367163 L20.5323687,25.4873767 L18.8014154,27.4802946 L21.2885247,29.637364 L23.0308741,27.6308458 C23.3843688,27.2815902 23.6275686,26.8382609 23.7316627,26.3764837 L23.7677668,26.1776702 C23.7713809,25.7183906 23.5561326,25.2889004 23.1598414,24.993899 C22.9011929,24.7368514 22.5612941,24.5842035 22.2042501,24.5576382 L22.0503684,24.5540357 Z M17.2704999,22.9078723 L15.6628966,24.758563 L18.0444258,26.8250076 L19.6618724,24.962288 C20.0137856,24.6090568 20.2485708,24.1580828 20.3362921,23.6859484 L20.3622355,23.5080557 C20.3689435,23.0530388 20.1598512,22.6216987 19.7869344,22.3356644 C19.0079265,21.6618657 18.2045973,21.8292568 17.2704999,22.9078723 Z M20.7091517,17.9067757 L26.3474067,24.2018678 L29.8905018,21.0314026 L30.5400238,21.761996 L26.2444153,25.6100869 L19.9519349,18.5858185 L20.7091517,17.9067757 Z M26.1599791,13.2638743 L31.8661373,20.7723605 L31.0524844,21.3873664 L25.3490844,13.8797423 L26.1599791,13.2638743 Z M34.7632429,8.94415038 L34.9598113,8.98452255 L34.971721,10.0145416 L34.6662444,9.94818025 C34.1793046,9.84239806 33.677167,9.82617192 33.1941355,9.89863587 C32.7294105,9.98749102 32.2857546,10.1636571 31.872086,10.4264087 L31.6975206,10.5296996 C31.0167488,10.965647 30.5493213,11.6694847 30.4201061,12.4427741 C30.3603486,14.5101877 31.5359897,16.4151111 33.380461,17.2770601 C34.2227689,17.5420008 35.1403486,17.401274 35.8801572,16.886018 L36.0789775,16.7595698 C36.4029775,16.5386146 36.6891864,16.2675635 36.9232663,15.9605914 C37.2108531,15.5541976 37.4221452,15.0989119 37.546835,14.6169444 L37.6248881,14.3152436 L38.5317753,14.7824116 L38.4888731,14.9706358 C38.2202645,16.1490992 37.4663934,17.1593449 36.427119,17.7438573 L36.2024908,17.8809094 C35.5934067,18.2270026 34.906108,18.4172735 34.1979794,18.4327527 C33.4348442,18.4321201 32.6896276,18.20146 32.0534497,17.7665332 C30.6300917,16.7291367 29.6707522,15.1746876 29.3804782,13.4290594 C29.281231,12.6743586 29.4104047,11.9072361 29.7574255,11.215231 C30.7574731,9.45356807 32.7787089,8.53655709 34.7632429,8.94415038 Z" id="形状结合"></path>
        </g>
    </g>
</svg>