<?xml version="1.0" encoding="UTF-8"?>
<svg width="14px" height="14px" viewBox="0 0 14 14" version="1.1" xmlns="http://www.w3.org/2000/svg" xmlns:xlink="http://www.w3.org/1999/xlink">
    <title>Close Icon</title>
    <g id="页面-1" stroke="none" stroke-width="1" fill="none" fill-rule="evenodd">
        <g id="GEEK-BAR-VERIFY-PRODUCT-new" transform="translate(-1072.000000, -389.000000)" fill="#D8D8D8">
            <g id="编组-5" transform="translate(694.000000, 365.000000)">
                <path d="M387.781,32.738 C388.071,33.028 388.073,33.493 387.783,33.784 C387.496,34.071 387.029,34.073 386.738,33.782 L384.999,32.044 L383.261,33.782 C382.97,34.071 382.506,34.073 382.216,33.784 C381.928,33.495 381.927,33.03 382.218,32.738 L383.956,31 L382.218,29.262 C381.93,28.973 381.927,28.508 382.216,28.217 C382.504,27.928 382.969,27.927 383.261,28.217 L384.999,29.955 L386.738,28.217 C387.027,27.929 387.494,27.927 387.783,28.217 C388.071,28.505 388.073,28.969 387.781,29.262 L386.044,31 L387.781,32.738 Z M385,24 C381.135,24 378,27.135 378,31 C378,34.865 381.135,38 385,38 C388.866,38 392,34.865 392,31 C392,27.135 388.866,24 385,24 L385,24 Z" id="Close-Icon"></path>
            </g>
        </g>
    </g>
</svg>