<?xml version="1.0" encoding="UTF-8"?>
<svg width="96px" height="56px" viewBox="0 0 96 56" version="1.1" xmlns="http://www.w3.org/2000/svg" xmlns:xlink="http://www.w3.org/1999/xlink">
    <title>exclusive_label</title>
    <defs>
        <rect id="path-1" x="0" y="0" width="96" height="56"></rect>
        <rect id="path-3" x="0.803847577" y="0.535898385" width="114" height="16"></rect>
    </defs>
    <g id="exclusive_label" stroke="none" stroke-width="1" fill="none" fill-rule="evenodd">
        <g>
            <mask id="mask-2" fill="white">
                <use xlink:href="#path-1"></use>
            </mask>
            <use id="矩形" fill="#FFFFFF" opacity="0" xlink:href="#path-1"></use>
            <g id="exclusive" mask="url(#mask-2)">
                <g transform="translate(52.500000, 19.816987) rotate(30.000000) translate(-52.500000, -19.816987) translate(-5.000000, 11.316987)">
                    <g id="矩形" fill="none" fill-rule="evenodd">
                        <use fill="#FD9251" xlink:href="#path-3"></use>
                        <use fill="#F10909" xlink:href="#path-3"></use>
                    </g>
                    <path d="M39.0940254,13.5 L39.0940254,11.888 L34.9730254,11.888 L34.9730254,9.314 L38.3530254,9.314 L38.3530254,7.702 L34.9730254,7.702 L34.9730254,5.479 L38.9510254,5.479 L38.9510254,3.88 L33.0490254,3.88 L33.0490254,13.5 L39.0940254,13.5 Z M42.0840254,13.5 L43.1110254,11.368 C43.3450254,10.874 43.5660254,10.367 43.8130254,9.782 L43.8650254,9.782 C44.1510254,10.367 44.3720254,10.874 44.6190254,11.368 L45.6980254,13.5 L47.8300254,13.5 L45.1260254,8.625 L47.6610254,3.88 L45.6330254,3.88 L44.7230254,5.856 C44.5150254,6.311 44.3200254,6.779 44.0860254,7.377 L44.0210254,7.377 C43.7350254,6.779 43.5270254,6.311 43.3060254,5.856 L42.3440254,3.88 L40.2120254,3.88 L42.7470254,8.534 L40.0430254,13.5 L42.0840254,13.5 Z M53.1210254,13.682 C54.3690254,13.682 55.3960254,13.188 56.1890254,12.265 L55.1750254,11.069 C54.6550254,11.628 54.0050254,12.018 53.1860254,12.018 C51.6650254,12.018 50.6770254,10.757 50.6770254,8.664 C50.6770254,6.597 51.7690254,5.349 53.2250254,5.349 C53.9530254,5.349 54.5120254,5.687 54.9930254,6.155 L56.0070254,4.933 C55.3830254,4.283 54.4080254,3.698 53.1860254,3.698 C50.7550254,3.698 48.7140254,5.557 48.7140254,8.729 C48.7140254,11.94 50.6900254,13.682 53.1210254,13.682 Z M63.5600254,13.5 L63.5600254,11.888 L59.6600254,11.888 L59.6600254,3.88 L57.7360254,3.88 L57.7360254,13.5 L63.5600254,13.5 Z M68.9290254,13.682 C71.2820254,13.682 72.6470254,12.369 72.6470254,9.171 L72.6470254,3.88 L70.8010254,3.88 L70.8010254,9.34 C70.8010254,11.342 70.0730254,12.018 68.9290254,12.018 C67.7980254,12.018 67.1090254,11.342 67.1090254,9.34 L67.1090254,3.88 L65.1850254,3.88 L65.1850254,9.171 C65.1850254,12.369 66.5890254,13.682 68.9290254,13.682 Z M77.8340254,13.682 C80.0570254,13.682 81.3700254,12.343 81.3700254,10.77 C81.3700254,9.379 80.6030254,8.638 79.4330254,8.157 L78.1720254,7.624 C77.3530254,7.299 76.6640254,7.052 76.6640254,6.363 C76.6640254,5.726 77.2100254,5.349 78.0550254,5.349 C78.8480254,5.349 79.4850254,5.635 80.0960254,6.142 L81.0710254,4.933 C80.2910254,4.14 79.1730254,3.698 78.0550254,3.698 C76.1050254,3.698 74.7270254,4.907 74.7270254,6.48 C74.7270254,7.884 75.7020254,8.664 76.6770254,9.067 L77.9640254,9.613 C78.8220254,9.977 79.4070254,10.198 79.4070254,10.913 C79.4070254,11.589 78.8740254,12.018 77.8730254,12.018 C77.0280254,12.018 76.1180254,11.589 75.4290254,10.952 L74.3240254,12.278 C75.2600254,13.175 76.5470254,13.682 77.8340254,13.682 Z M84.9970254,13.5 L84.9970254,3.88 L83.0730254,3.88 L83.0730254,13.5 L84.9970254,13.5 Z M91.3410254,13.5 L94.2920254,3.88 L92.3420254,3.88 L91.0940254,8.56 C90.7950254,9.626 90.5740254,10.588 90.2750254,11.667 L90.2100254,11.667 C89.8980254,10.588 89.7030254,9.626 89.4040254,8.56 L88.1300254,3.88 L86.1150254,3.88 L89.0530254,13.5 L91.3410254,13.5 Z M101.442025,13.5 L101.442025,11.888 L97.3210254,11.888 L97.3210254,9.314 L100.701025,9.314 L100.701025,7.702 L97.3210254,7.702 L97.3210254,5.479 L101.299025,5.479 L101.299025,3.88 L95.3970254,3.88 L95.3970254,13.5 L101.442025,13.5 Z" id="EXCLUSIVE" fill="#FFFFFF" fill-rule="nonzero"></path>
                </g>
            </g>
        </g>
    </g>
</svg>