<?xml version="1.0" encoding="UTF-8"?>
<svg width="1200px" height="143px" viewBox="0 0 1200 143" version="1.1" xmlns="http://www.w3.org/2000/svg" xmlns:xlink="http://www.w3.org/1999/xlink">
    <title>funky_lands_mask</title>
    <g id="Home/-TI7000" stroke="none" stroke-width="1" fill="none" fill-rule="evenodd">
        <g id="funky_lands_mask" fill="#000000" fill-rule="nonzero">
            <path d="M79.8021188,26.1506638 L79.8021188,3.35030415 L0,3.35030415 L0,140.205585 L22.8006053,140.205585 L22.8006053,94.5836166 L74.1046224,94.5836166 L74.1046224,71.7726323 L22.8006053,71.7726323 L22.8006053,26.1506638 L79.8021188,26.1506638 Z M203.570006,97.4416295 C203.300316,122.44445 182.96435,142.571308 157.97145,142.571308 C132.978551,142.571308 112.642584,122.44445 112.372895,97.4416295 L112.372895,3.35561644 L135.1735,3.35561644 L135.1735,97.4416295 C135.1735,110.038321 145.38049,120.249958 157.97145,120.249958 C170.562411,120.249958 180.769401,110.038321 180.769401,97.4416295 L180.769401,3.35561644 L203.570006,3.35561644 L203.570006,97.4416295 Z M235.429259,46.1142591 C235.252195,29.6987442 243.904298,14.4538106 258.085307,6.19449026 C272.266316,-2.06483009 289.789314,-2.06483009 303.970323,6.19449026 C318.151332,14.4538106 326.803434,29.6987442 326.626371,46.1142591 L326.626371,140.210897 L303.847005,140.210897 L303.847005,46.1142591 C303.847005,33.5146335 293.637638,23.3006188 281.043744,23.3006188 C268.449852,23.3006188 258.240484,33.5146335 258.240484,46.1142591 L258.240484,140.210897 L235.429259,140.210897 L235.429259,46.1142591 Z M560.197174,3.35030415 L537.598345,3.35030415 L511.744559,50.8793856 L485.890776,3.35030415 L463.291946,3.35030415 L500.344257,71.7832567 L500.344257,140.205585 L523.144862,140.205585 L523.144862,71.7726323 L560.197174,3.35030415 Z M426.568847,140.205585 L452.87397,140.205585 L401.596502,71.0873465 L447.171164,3.35030415 L420.88728,3.35030415 L381.594201,61.6792765 L381.594201,3.35030415 L358.820146,3.35030415 L358.820146,140.205585 L381.594201,140.205585 L381.594201,85.8661441 L386.235033,85.8661441 L426.568847,140.205585 Z M640.949762,3.35561644 L640.949762,94.5836166 C640.949762,119.782867 661.368497,140.210897 686.55628,140.210897 L720.757189,140.210897 L720.757189,117.399913 L686.55628,117.399913 C673.97113,117.382356 663.773223,107.179808 663.755678,94.5889288 L663.755678,3.35561644 L640.949762,3.35561644 Z M879.458749,46.1142591 C879.728453,21.1085159 900.066793,0.979297879 925.062613,0.979297879 C950.058433,0.979297879 970.396774,21.1085159 970.666478,46.1142591 L970.666478,140.210897 L947.865875,140.210897 L947.865875,46.1142591 C947.865875,33.5146335 937.656507,23.3006188 925.062613,23.3006188 C912.468719,23.3006188 902.259352,33.5146335 902.259352,46.1142591 L902.259352,140.210897 L879.458749,140.210897 L879.458749,46.1142591 Z M1048.32872,3.35561644 L1025.46439,3.35561644 L1025.46439,3.35561644 L1002.63193,3.35561644 L1002.63193,140.200272 L1014.05347,140.200272 L1048.3181,140.200272 C1073.50588,140.200272 1093.92461,119.772243 1093.92461,94.5729917 L1093.92461,48.9775848 C1093.92169,23.7845566 1073.51028,3.36148262 1048.32872,3.35561644 L1048.32872,3.35561644 Z M1071.12933,94.5942409 C1071.11177,107.185121 1060.91387,117.387669 1048.32872,117.405225 L1025.46439,117.405225 L1025.46439,26.1665994 L1048.32872,26.1665994 C1054.37625,26.1651911 1060.17649,28.5680318 1064.45274,32.8462267 C1068.72898,37.1244216 1071.13073,42.9273037 1071.12933,48.9775848 L1071.12933,94.5942409 Z M1116.69867,114.786265 L1137.50808,104.55479 C1141.70547,113.082933 1150.09151,118.760326 1159.5653,119.487644 C1163.8573,120.036041 1168.17383,118.674265 1171.37503,115.761922 C1174.57623,112.849579 1176.3402,108.679515 1176.20114,104.352922 C1176.20114,98.2384738 1176.78522,89.526314 1150.71374,77.7489615 C1127.91844,67.4431136 1119.71999,53.8702063 1119.71999,39.229528 C1119.62167,28.728562 1123.82126,18.6444024 1131.34312,11.3197875 C1138.86499,3.99517253 1149.05436,0.0676990509 1159.54406,0.449792416 C1177.06822,0.737818926 1192.84123,11.149556 1200,27.1546871 L1179.1906,37.3861625 C1176.28973,28.9856371 1168.42716,23.3135042 1159.54406,23.212966 C1146.51363,23.212966 1142.06926,31.8826274 1142.06926,38.1192589 C1142.06926,49.434442 1151.86067,54.9273523 1173.36035,65.2119509 C1199.50087,77.7170873 1200,96.6766599 1200,106.27066 C1200,117.049302 1192.82636,143 1158.63076,143 C1130.72736,143.052974 1116.69867,114.786265 1116.69867,114.786265 Z M796.868945,105.665057 C807.055456,105.667989 815.312522,113.928814 815.315453,124.119961 C815.315453,131.584274 810.821106,138.313601 803.928118,141.17007 C797.035131,144.026538 789.100959,142.447615 783.825295,137.169549 C778.549631,131.891484 776.971426,123.953701 779.826595,117.057575 C782.681763,110.16145 789.408029,105.665057 796.868945,105.665057 Z M808.274558,3.35561507 L853.80143,140.210896 L831.000825,140.210896 L796.874255,37.6358389 L762.763615,140.22152 L739.96301,140.22152 L785.473952,3.35561507 L808.274558,3.35561507 Z" id="形状结合"></path>
        </g>
    </g>
</svg>