<?xml version="1.0" encoding="UTF-8"?>
<svg width="26px" height="16px" viewBox="0 0 26 16" version="1.1" xmlns="http://www.w3.org/2000/svg" xmlns:xlink="http://www.w3.org/1999/xlink">
    <title>编组 6</title>
    <g id="页面-1" stroke="none" stroke-width="1" fill="none" fill-rule="evenodd">
        <g id="编组-6">
            <path d="M2,0 L24,0 C25.1045695,-2.02906125e-16 26,0.8954305 26,2 L26,11 C26,12.1045695 25.1045695,13 24,13 L23.5,13 L23.5,13 L24,16 L19,13 L2,13 C0.8954305,13 1.3527075e-16,12.1045695 0,11 L0,2 C-1.3527075e-16,0.8954305 0.8954305,2.02906125e-16 2,0 Z" id="矩形" fill="#FD9251"></path>
            <g id="HOT" transform="translate(2.164000, 2.000000)" fill="#FFFFFF" fill-rule="nonzero">
                <polygon id="路径" points="0 9 1.392 9 1.392 4.98 5.172 4.98 5.172 9 6.564 9 6.564 0.156 5.172 0.156 5.172 3.768 1.392 3.768 1.392 0.156 0 0.156"></polygon>
                <path d="M11.44,9.156 C13.708,9.156 15.292,7.392 15.292,4.548 C15.292,1.704 13.708,0 11.44,0 C9.172,0 7.6,1.704 7.6,4.548 C7.6,7.392 9.172,9.156 11.44,9.156 Z M11.44,7.944 C9.976,7.944 9.028,6.612 9.028,4.548 C9.028,2.472 9.976,1.212 11.44,1.212 C12.904,1.212 13.864,2.472 13.864,4.548 C13.864,6.612 12.904,7.944 11.44,7.944 Z" id="形状"></path>
                <polygon id="路径" points="17.792 9 19.184 9 19.184 1.332 21.788 1.332 21.788 0.156 15.2 0.156 15.2 1.332 17.792 1.332"></polygon>
            </g>
        </g>
    </g>
</svg>