<?xml version="1.0" encoding="UTF-8"?>
<svg width="320px" height="121px" viewBox="0 0 320 121" version="1.1" xmlns="http://www.w3.org/2000/svg" xmlns:xlink="http://www.w3.org/1999/xlink">
    <title>编组 2</title>
    <g id="home" stroke="none" stroke-width="1" fill="none" fill-rule="evenodd">
        <g id="&gt;=768/404" transform="translate(-478.000000, -168.000000)">
            <g id="unsubscribe" transform="translate(478.000000, 168.000000)">
                <g id="btns">
                    <g id="编组-2">
                        <g id="编组-3">
                            <path d="M266,23 C264.402319,23 263.096339,24.24892 263.005093,25.8237272 L263,26 C263,27.5976809 264.24892,28.9036609 265.823727,28.9949073 L266,29 L270,29 C271.104569,29 272,29.8954305 272,31 C272,32.1045695 271.104569,33 270,33 L263,33 C261.402319,33 260.096339,34.24892 260.005093,35.8237272 L260,36 C260,37.5976809 261.24892,38.9036609 262.823727,38.9949073 L263,39 L265,39 C264.827343,39 264.659797,39.0218783 264.499981,39.0630137 C265.363117,39.2856488 266,40.0684484 266,41 C266,41.9315516 265.363117,42.7143512 264.501022,42.9367279 C264.613323,42.9661598 264.730554,42.9856474 264.850738,42.9945143 L265,43 L234,43 C232.895431,43 232,42.1045695 232,41 C232,39.8954305 232.895431,39 234,39 L250,39 C251.597681,39 252.903661,37.75108 252.994907,36.1762728 L253,36 C253,34.4023191 251.75108,33.0963391 250.176273,33.0050927 L250,33 L227,33 C225.895431,33 225,32.1045695 225,31 C225,29.8954305 225.895431,29 227,29 L245,29 C246.597681,29 247.903661,27.75108 247.994907,26.1762728 L248,26 C248,24.4023191 246.75108,23.0963391 245.176273,23.0050927 L245,23 L230,23 C228.895431,23 228,22.1045695 228,21 C228,19.8954305 228.895431,19 230,19 L278,19 C279.104569,19 280,19.8954305 280,21 C280,22.1045695 279.104569,23 278,23 L266,23 Z M283,39 C284.104569,39 285,39.8954305 285,41 C285,42.1045695 284.104569,43 283,43 L272,43 C270.895431,43 270,42.1045695 270,41 C270,39.8954305 270.895431,39 272,39 L283,39 Z" id="形状结合" fill="#0054FF"></path>
                            <path d="M213.226415,24 C214.330985,24 215.226415,24.8954305 215.226415,26 C215.226415,27.1045695 214.330985,28 213.226415,28 L201.751094,27.999383 C201.135883,28.4460392 200.722113,29.153257 200.671831,29.9589909 L200.666667,30.125 C200.666667,31.518988 201.753254,32.6591899 203.125658,32.7448356 L203.291667,32.75 L206.416667,32.75 C207.383165,32.75 208.166667,33.5335017 208.166667,34.5 C208.166667,35.4664983 207.383165,36.25 206.416667,36.25 L200.791667,36.25 C199.397679,36.25 198.257477,37.336587 198.171831,38.7089909 L198.166667,38.875 C198.166667,40.268988 199.253254,41.4091899 200.625658,41.4948356 L200.791667,41.5 L202.416667,41.5 C202.242624,41.5 202.074516,41.5254067 201.915848,41.5727135 C202.639743,41.787866 203.166667,42.4573982 203.166667,43.25 C203.166667,44.0426018 202.639743,44.712134 201.917086,44.9274055 C202.03046,44.961458 202.149998,44.9842027 202.273139,44.9941988 L202.416667,45 L176.583333,45 C175.616835,45 174.833333,44.2164983 174.833333,43.25 C174.833333,42.2835017 175.616835,41.5 176.583333,41.5 L189.708333,41.5 C191.102321,41.5 192.242523,40.413413 192.328169,39.0410091 L192.333333,38.875 C192.333333,37.481012 191.246746,36.3408101 189.874342,36.2551644 L189.708333,36.25 L170.75,36.25 C169.783502,36.25 169,35.4664983 169,34.5 C169,33.5335017 169.783502,32.75 170.75,32.75 L185.541667,32.75 C186.935655,32.75 188.075857,31.663413 188.161502,30.2910091 L188.166667,30.125 C188.166667,29.2511368 187.739661,28.4770061 187.082921,27.9998779 L173.830189,28 C172.725619,28 171.830189,27.1045695 171.830189,26 C171.830189,24.8954305 172.725619,24 173.830189,24 L213.226415,24 Z M217.25,41.5 C218.216498,41.5 219,42.2835017 219,43.25 C219,44.2164983 218.216498,45 217.25,45 L208.083333,45 L208.166,44.997 L208.106473,44.9941988 C207.20711,44.9211923 206.5,44.1681734 206.5,43.25 C206.5,42.3116912 207.238464,41.5458599 208.165913,41.5019847 L208.125153,41.5004955 L208.125153,41.5004955 L217.25,41.5 Z" id="形状结合备份-3" fill="#FEB714"></path>
                            <path d="M142.5,41 C143.328427,41 144,41.6715729 144,42.5 C144,43.3284271 143.328427,44 142.5,44 L133.667705,43.9992536 C133.331576,44.310662 133.109778,44.7437333 133.072308,45.2284699 L133.066667,45.375 C133.066667,46.3612228 133.828087,47.1696062 134.795137,47.2443588 L134.941667,47.25 L137.516667,47.25 C138.207023,47.25 138.766667,47.8096441 138.766667,48.5 C138.766667,49.1903559 138.207023,49.75 137.516667,49.75 L133.041667,49.75 C132.055444,49.75 131.24706,50.5114205 131.172308,51.4784699 L131.166667,51.625 C131.166667,52.6112228 131.928087,53.4196062 132.895137,53.4943588 L133.041667,53.5 L134.316667,53.5 C134.213113,53.5 134.112501,53.512592 134.016277,53.5363283 C134.562324,53.6708342 134.966667,54.1631975 134.966667,54.75 C134.966667,55.3368025 134.562324,55.8291658 134.017056,55.9636717 C134.072408,55.9775179 134.130032,55.9875719 134.188861,55.9935464 L134.316667,56 L114.683333,56 C113.992977,56 113.433333,55.4403559 113.433333,54.75 C113.433333,54.0596441 113.992977,53.5 114.683333,53.5 L124.858333,53.5 C125.844556,53.5 126.65294,52.7385795 126.727692,51.7715301 L126.733333,51.625 C126.733333,50.6387772 125.971913,49.8303938 125.004863,49.7556412 L124.858333,49.75 L110.25,49.75 C109.559644,49.75 109,49.1903559 109,48.5 C109,47.8096441 109.559644,47.25 110.25,47.25 L121.691667,47.25 C122.677889,47.25 123.486273,46.4885795 123.561025,45.5215301 L123.566667,45.375 C123.566667,44.8314512 123.335379,44.3419224 122.965852,43.9994607 L112.5,44 C111.671573,44 111,43.3284271 111,42.5 C111,41.6715729 111.671573,41 112.5,41 L142.5,41 Z M145.75,53.5 C146.440356,53.5 147,54.0596441 147,54.75 C147,55.4403559 146.440356,56 145.75,56 L138.75,56 C138.059644,56 137.5,55.4403559 137.5,54.75 C137.5,54.0596441 138.059644,53.5 138.75,53.5 L145.75,53.5 Z" id="形状结合备份-10" fill="#2377FF" transform="translate(128.000000, 48.500000) scale(-1, 1) translate(-128.000000, -48.500000) "></path>
                            <path d="M92.5,16 C93.8807119,16 95,17.1192881 95,18.5 C95,19.8807119 93.8807119,21 92.5,21 L78.9285811,21.0006082 C78.6067685,21.435775 78.4048309,21.964967 78.3715472,22.5394052 L78.3666667,22.7083333 C78.3666667,24.2394442 79.5635483,25.4910083 81.0727386,25.5784528 L81.2416667,25.5833333 L85.3,25.5833333 C86.3585458,25.5833333 87.2166667,26.4414542 87.2166667,27.5 C87.2166667,28.5585458 86.3585458,29.4166667 85.3,29.4166667 L78.2916667,29.4166667 C76.7605558,29.4166667 75.5089917,30.6135483 75.4215472,32.1227386 L75.4166667,32.2916667 C75.4166667,33.8227775 76.6135483,35.0743417 78.1227386,35.1617862 L78.2916667,35.1666667 L80.2833333,35.1666667 C80.1313872,35.1666667 79.9835708,35.1843477 79.8418291,35.2177646 C80.687218,35.4171496 81.3166667,36.1767337 81.3166667,37.0833333 C81.3166667,37.989933 80.687218,38.7495171 79.8415042,38.948902 C79.9365491,38.9712331 80.0339818,38.9865371 80.133547,38.9942335 L80.2833333,39 L49.8,39 C48.7414542,39 47.8833333,38.1418791 47.8833333,37.0833333 C47.8833333,36.0247876 48.7414542,35.1666667 49.8,35.1666667 L65.6583333,35.1666667 C67.1894442,35.1666667 68.4410083,33.969785 68.5284528,32.4605948 L68.5333333,32.2916667 C68.5333333,30.7605558 67.3364517,29.5089917 65.8272614,29.4215472 L65.6583333,29.4166667 L42.9166667,29.4166667 C41.8581209,29.4166667 41,28.5585458 41,27.5 C41,26.4414542 41.8581209,25.5833333 42.9166667,25.5833333 L60.7416667,25.5833333 C62.2727775,25.5833333 63.5243417,24.3864517 63.6117862,22.8772614 L63.6166667,22.7083333 C63.6166667,22.0684661 63.4076323,21.4774215 63.0541266,20.9997624 L38.5,21 C37.1192881,21 36,19.8807119 36,18.5 C36,17.1192881 37.1192881,16 38.5,16 L92.5,16 Z M98.0833333,35.1666667 C99.1418791,35.1666667 100,36.0247876 100,37.0833333 C100,38.1418791 99.1418791,39 98.0833333,39 L87.1666667,39 C86.1081209,39 85.25,38.1418791 85.25,37.0833333 C85.25,36.0247876 86.1081209,35.1666667 87.1666667,35.1666667 L98.0833333,35.1666667 Z" id="形状结合备份-5" fill="#12B04A" transform="translate(68.000000, 27.500000) scale(1, -1) translate(-68.000000, -27.500000) "></path>
                            <path d="M69,66 C70.6568542,66 72,67.3431458 72,69 C72,70.6568542 70.6568542,72 69,72 L53.10118,72.000288 C52.8736645,72.3936952 52.732914,72.843563 52.7050927,73.3237272 L52.7,73.5 L52.7,74.25 C52.7,75.8476809 53.94892,77.1536609 55.5237272,77.2449073 L55.7,77.25 L61.05,77.25 C62.1545695,77.25 63.05,78.1454305 63.05,79.25 L63.05,79.75 C63.05,80.8545695 62.1545695,81.75 61.05,81.75 L52.25,81.75 C50.6523191,81.75 49.3463391,82.99892 49.2550927,84.5737272 L49.25,84.75 L49.25,85.5 C49.25,87.0976809 50.49892,88.4036609 52.0737272,88.4949073 L52.25,88.5 L54.7,88.5 C54.6068062,88.5 54.5151012,88.5063741 54.4252972,88.5187101 C55.3998027,88.6531542 56.15,89.4889681 56.15,90.5 L56.15,91 C56.15,92.0110319 55.3998027,92.8468458 54.4256969,92.9811531 C54.4667197,92.9869799 54.5085467,92.9914015 54.5507377,92.9945143 L54.7,93 L19.05,93 C17.9454305,93 17.05,92.1045695 17.05,91 L17.05,90.5 C17.05,89.3954305 17.9454305,88.5 19.05,88.5 L38.2,88.5 C39.7976809,88.5 41.1036609,87.25108 41.1949073,85.6762728 L41.2,85.5 L41.2,84.75 C41.2,83.1523191 39.95108,81.8463391 38.3762728,81.7550927 L38.2,81.75 L11,81.75 C9.8954305,81.75 9,80.8545695 9,79.75 L9,79.25 C9,78.1454305 9.8954305,77.25 11,77.25 L32.45,77.25 C34.0476809,77.25 35.3536609,76.00108 35.4449073,74.4262728 L35.45,74.25 L35.45,73.5 C35.45,72.9536881 35.3039721,72.4414829 35.04882,72.000288 L15,72 C13.3431458,72 12,70.6568542 12,69 C12,67.3431458 13.3431458,66 15,66 L69,66 Z" id="形状结合备份-6" fill="#FDB816" transform="translate(40.500000, 79.500000) scale(-1, -1) translate(-40.500000, -79.500000) "></path>
                            <path d="M233.5,101 C234.328427,101 235,101.671573 235,102.5 C235,103.328427 234.328427,104 233.5,104 L225.175653,103.999856 C224.968189,104.262656 224.83449,104.586387 224.805801,104.939806 L224.8,105.083333 C224.8,106.001507 225.50711,106.754526 226.406473,106.827532 L226.55,106.833333 L229.033333,106.833333 C229.677666,106.833333 230.2,107.355668 230.2,108 C230.2,108.644332 229.677666,109.166667 229.033333,109.166667 L224.75,109.166667 C223.831827,109.166667 223.078808,109.873777 223.005801,110.773139 L223,110.916667 C223,111.83484 223.70711,112.587859 224.606473,112.660865 L224.75,112.666667 L225.966667,112.666667 C225.874619,112.666667 225.785062,112.677327 225.699161,112.697479 C226.215742,112.81779 226.6,113.280688 226.6,113.833333 C226.6,114.385618 226.216244,114.848272 225.700839,114.969188 C225.745664,114.980054 225.792179,114.988021 225.839545,114.993154 L225.966667,115 L207.366667,115 C206.722334,115 206.2,114.477666 206.2,113.833333 C206.2,113.189001 206.722334,112.666667 207.366667,112.666667 L217.05,112.666667 C217.968173,112.666667 218.721192,111.959556 218.794199,111.060194 L218.8,110.916667 C218.8,109.998493 218.09289,109.245474 217.193527,109.172468 L217.05,109.166667 L203.166667,109.166667 C202.522334,109.166667 202,108.644332 202,108 C202,107.355668 202.522334,106.833333 203.166667,106.833333 L214.05,106.833333 C214.968173,106.833333 215.721192,106.126223 215.794199,105.226861 L215.8,105.083333 C215.8,104.674312 215.659676,104.298064 215.424544,104.000106 L205.5,104 C204.671573,104 204,103.328427 204,102.5 C204,101.671573 204.671573,101 205.5,101 L233.5,101 Z M236.833333,112.666667 C237.477666,112.666667 238,113.189001 238,113.833333 C238,114.477666 237.477666,115 236.833333,115 L230.166667,115 C229.522334,115 229,114.477666 229,113.833333 C229,113.189001 229.522334,112.666667 230.166667,112.666667 L236.833333,112.666667 Z" id="形状结合备份-9" fill="#FE3C2F" transform="translate(220.000000, 108.000000) scale(-1, 1) translate(-220.000000, -108.000000) "></path>
                            <rect id="矩形" fill="#FEB714" x="294" y="18" width="20" height="7" rx="3.5"></rect>
                            <rect id="矩形备份-10" fill="#FE3D2C" x="278" y="74" width="30" height="8" rx="4"></rect>
                            <path d="M292.5,33 C293.880712,33 295,34.1192881 295,35.5 C295,36.8807119 293.880712,38 292.5,38 L276.958473,37.9995484 C276.042395,38.4727298 275.401372,39.4040189 275.338426,40.4903939 L275.333333,40.6666667 L275.333333,41.6666667 C275.333333,43.2643476 276.582253,44.5703275 278.157061,44.661574 L278.333333,44.6666667 L283.833333,44.6666667 C284.937903,44.6666667 285.833333,45.5620972 285.833333,46.6666667 L285.833333,47.3333333 C285.833333,48.4379028 284.937903,49.3333333 283.833333,49.3333333 L274.833333,49.3333333 C273.235652,49.3333333 271.929672,50.5822533 271.838426,52.1570605 L271.833333,52.3333333 L271.833333,53.3333333 C271.833333,54.9310142 273.082253,56.2369942 274.657061,56.3282406 L274.833333,56.3333333 L277.333333,56.3333333 C277.248629,56.3333333 277.165155,56.338599 277.08322,56.3488209 C278.070323,56.4722857 278.833333,57.3137043 278.833333,58.3333333 L278.833333,59 C278.833333,60.0196291 278.070323,60.8610476 277.084132,60.9844268 C277.116589,60.9886754 277.150213,60.9920163 277.184071,60.9945143 L277.333333,61 L241.166667,61 C240.062097,61 239.166667,60.1045695 239.166667,59 L239.166667,58.3333333 C239.166667,57.2287638 240.062097,56.3333333 241.166667,56.3333333 L260.666667,56.3333333 C262.264348,56.3333333 263.570328,55.0844134 263.661574,53.5096061 L263.666667,53.3333333 L263.666667,52.3333333 C263.666667,50.7356524 262.417747,49.4296725 260.842939,49.338426 L260.666667,49.3333333 L233,49.3333333 C231.895431,49.3333333 231,48.4379028 231,47.3333333 L231,46.6666667 C231,45.5620972 231.895431,44.6666667 233,44.6666667 L254.833333,44.6666667 C256.431014,44.6666667 257.736994,43.4177467 257.828241,41.8429395 L257.833333,41.6666667 L257.833333,40.6666667 C257.833333,39.505339 257.173455,38.4981343 256.208193,37.9995484 L236.5,38 C235.119288,38 234,36.8807119 234,35.5 C234,34.1192881 235.119288,33 236.5,33 L292.5,33 Z M299,56.3333333 C300.104569,56.3333333 301,57.2287638 301,58.3333333 L301,59 C301,60.1045695 300.104569,61 299,61 L285.5,61 C284.395431,61 283.5,60.1045695 283.5,59 L283.5,58.3333333 C283.5,57.2287638 284.395431,56.3333333 285.5,56.3333333 L299,56.3333333 Z" id="形状结合备份-2" fill="#10B14A" transform="translate(266.000000, 47.000000) scale(-1, 1) translate(-266.000000, -47.000000) "></path>
                            <rect id="矩形" fill="#10B14A" x="304" y="64" width="16" height="4" rx="2"></rect>
                            <rect id="矩形备份-12" fill="#10B14A" x="281" y="94" width="16" height="4" rx="2"></rect>
                            <rect id="矩形备份-11" fill="#FE3D2C" x="257" y="103" width="20" height="5" rx="2.5"></rect>
                            <rect id="矩形备份-14" fill="#FE3D2C" x="182" y="4" width="6" height="3" rx="1.5"></rect>
                            <rect id="矩形备份-21" fill="#FE3D2C" x="126" y="118" width="6" height="3" rx="1.5"></rect>
                            <rect id="矩形备份-15" fill="#FE3D2C" x="131" y="15" width="12" height="4" rx="2"></rect>
                            <rect id="矩形备份-13" fill="#10B14A" x="82" y="0" width="11" height="3" rx="1.5"></rect>
                            <rect id="矩形备份-16" fill="#10B14A" x="2" y="27" width="13" height="3" rx="1.5"></rect>
                            <rect id="矩形备份-17" fill="#10B14A" x="11" y="43" width="16" height="4" rx="2"></rect>
                            <rect id="矩形备份-18" fill="#2377FF" x="0" y="68" width="11" height="4" rx="2"></rect>
                            <rect id="矩形备份-19" fill="#0054FF" x="44" y="46" width="28" height="8" rx="4"></rect>
                            <rect id="矩形备份-20" fill="#0054FF" x="63" y="107" width="28" height="5" rx="2.5"></rect>
                        </g>
                        <g id="404" transform="translate(35.000000, 17.000000)" fill-rule="nonzero">
                            <path d="M57.2,0.12 C60.3073051,0.12 63.0529497,1.33131378 65.0584454,3.64534731 C66.8291916,5.68851593 67.7573618,8.1999421 67.8347249,10.9793479 L67.84,11.36 L67.84,61.56 L70.1156447,61.5605722 L70.5339127,61.5675017 C73.2263644,61.6500002 75.6217284,62.4183246 77.5691078,63.9484083 C80.0135436,65.8690365 81.16,68.7351775 81.16,72.08 C81.16,75.0425364 79.940835,77.6840605 77.7048237,79.6964707 C75.6650761,81.5322435 73.1605477,82.5160611 70.4013257,82.5948588 L70.04,82.6 L67.84,82.6 L67.84,92.72 L67.8297183,93.2203559 C67.7147813,96.0026228 66.636202,98.5069103 64.6949419,100.51511 C62.5911085,102.69149 59.8729678,103.84 56.84,103.84 C53.843899,103.84 51.1635761,102.657505 49.1047237,100.451591 C47.1978605,98.4085236 46.1679038,95.8792424 46.0853846,93.0858369 L46.08,92.72 L46.079,82.6 L11.0229937,82.5990589 L10.6028473,82.5899213 C7.62635133,82.4730432 5.00212411,81.3302346 3.02472366,79.2115913 C1.04666116,77.0922386 3.49587026e-12,74.4755857 3.49587026e-12,71.6 C3.49587026e-12,69.2768643 0.680210436,67.1139627 1.99911727,65.2712813 L2.22484181,64.9671602 L48.1848418,4.72716018 L48.4940541,4.33932327 C50.7472766,1.61422174 53.761594,0.12 57.2,0.12 Z M45.84,44.069 L33.228,60.6 L45.84,60.6 L45.84,44.069 Z" id="形状结合" fill="#2477FF"></path>
                            <path d="M229.72,0.12 C232.827305,0.12 235.57295,1.33131378 237.578445,3.64534731 C239.349192,5.68851593 240.277362,8.1999421 240.354725,10.9793479 L240.36,11.36 L240.36,61.56 L242.635645,61.5605722 L243.053913,61.5675017 C245.746364,61.6500002 248.141728,62.4183246 250.089108,63.9484083 C252.533544,65.8690365 253.68,68.7351775 253.68,72.08 C253.68,75.0425364 252.460835,77.6840605 250.224824,79.6964707 C248.185076,81.5322435 245.680548,82.5160611 242.921326,82.5948588 L242.56,82.6 L240.36,82.6 L240.36,92.72 L240.349718,93.2203559 C240.234781,96.0026228 239.156202,98.5069103 237.214942,100.51511 C235.111108,102.69149 232.392968,103.84 229.36,103.84 C226.363899,103.84 223.683576,102.657505 221.624724,100.451591 C219.71786,98.4085236 218.687904,95.8792424 218.605385,93.0858369 L218.6,92.72 L218.599,82.6 L183.542994,82.5990589 L183.122847,82.5899213 C180.146351,82.4730432 177.522124,81.3302346 175.544724,79.2115913 C173.566661,77.0922386 172.52,74.4755857 172.52,71.6 C172.52,69.2768643 173.20021,67.1139627 174.519117,65.2712813 L174.744842,64.9671602 L220.704842,4.72716018 L221.014054,4.33932327 C223.267277,1.61422174 226.281594,0.12 229.72,0.12 Z M218.36,44.069 L205.748,60.6 L218.36,60.6 L218.36,44.069 Z" id="形状结合备份" fill="#FEB714" transform="translate(213.100000, 51.980000) scale(-1, 1) translate(-213.100000, -51.980000) "></path>
                            <path d="M126.84,0 C134.031497,0 140.360554,2.30593526 145.602622,6.8684764 C150.665541,11.2750909 154.42262,17.460526 156.924629,25.3239817 C159.332533,32.8916813 160.52,41.7552719 160.52,51.92 C160.52,62.0847281 159.332533,70.9483187 156.924629,78.5160183 C154.42262,86.379474 150.665541,92.5649091 145.602622,96.9715236 C140.360554,101.534065 134.031497,103.84 126.84,103.84 C115.942269,103.84 107.277054,98.7832455 101.385405,89.0738076 C95.8486732,79.9492736 93.16,67.5598674 93.16,51.92 C93.16,36.2801326 95.8486732,23.8907264 101.385405,14.7661924 C107.277054,5.05675449 115.942269,0 126.84,0 Z M126.84,22 C123.766642,22 122.164619,22.9307439 120.193623,26.1789459 C117.034154,31.3857503 115.16,39.8932594 115.16,51.92 C115.16,63.9467406 117.034154,72.4542497 120.193623,77.6610541 C122.164619,80.9092561 123.766642,81.84 126.84,81.84 C128.791589,81.84 129.975215,81.407224 131.159084,80.3768198 C132.946009,78.8215329 134.601274,76.1166418 135.960262,71.8455378 C137.624838,66.6140116 138.52,59.9773481 138.52,51.92 C138.52,43.8626519 137.624838,37.2259884 135.960262,31.9944622 C134.601274,27.7233582 132.946009,25.0184671 131.159084,23.4631802 C129.975215,22.432776 128.791589,22 126.84,22 Z" id="路径" fill="#E55309"></path>
                        </g>
                    </g>
                </g>
            </g>
        </g>
    </g>
</svg>