<?xml version="1.0" encoding="utf-8"?>
<!-- Generator: Adobe Illustrator 17.0.0, SVG Export Plug-In . SVG Version: 6.00 Build 0)  -->
<!DOCTYPE svg PUBLIC "-//W3C//DTD SVG 1.1//EN" "http://www.w3.org/Graphics/SVG/1.1/DTD/svg11.dtd">
<svg version="1.1" id="图层_1" xmlns="http://www.w3.org/2000/svg" xmlns:xlink="http://www.w3.org/1999/xlink" x="0px" y="0px"
	 width="95px" height="95px" viewBox="0 0 95 95" enable-background="new 0 0 95 95" xml:space="preserve">
<g>
	<g>
		<path fill="#888888" d="M47.504,0v3c11.883,0,23.057,4.629,31.462,13.034C87.371,24.439,92,35.613,92,47.5
			c0,11.886-4.629,23.061-13.034,31.466C70.561,87.371,59.387,92,47.5,92c-11.887,0-23.062-4.628-31.467-13.033
			c-17.351-17.351-17.351-45.583,0-62.933C24.438,7.629,35.613,3.001,47.5,3L47.504,0 M47.5,0
			C35.345,0.001,23.186,4.638,13.912,13.912c-18.55,18.55-18.55,48.625,0,67.175C23.187,90.362,35.344,95,47.5,95
			s24.313-4.637,33.588-13.912c18.55-18.55,18.55-48.625,0-67.175C71.811,4.636,59.658-0.001,47.5,0L47.5,0z"/>
	</g>
</g>
<g>
	<g>
		<path fill="#888888" d="M24.304,64.393c4.347,0.393,6.817,2.548,6.817,2.548s0.342,0.219,0.558,0.218
			c0.451-0.002,0.815-0.37,0.813-0.822c0-0.077-0.025-0.146-0.045-0.216c0.014,0.01-0.174-0.469-0.7-1.188
			c-0.005-0.007-0.021-0.034-0.024-0.038l0.02,0.033c-2.395-2.747-6.355-5.563-11.353-5.561c-0.015-0.001-1.264,0-1.99,0.001
			c-0.056,0.009-1.184,0.207-1.259,0.81c0,0,0,2.408,0.02,3.674c0.007,0.451,0.37,0.815,0.822,0.813
			c0.074,0,0.304-0.075,0.592-0.148c0.056-0.017,0.126-0.034,0.208-0.05c0.015-0.003,0.029-0.006,0.044-0.009
			c0.036-0.007,0.063-0.014,0.104-0.02c0.033-0.005,0.071-0.008,0.105-0.012c0.062-0.009,0.121-0.023,0.183-0.029
			c0,0,0.037-0.008,0.217-0.018c1.781-0.183,4.189-0.02,4.441-0.017C24.03,64.363,24.157,64.387,24.304,64.393z"/>
		<path fill="#888888" d="M24.304,32.708c4.347-0.393,6.817-2.548,6.817-2.548s0.342-0.219,0.558-0.218
			c0.451,0.002,0.815,0.37,0.813,0.822c0,0.077-0.025,0.146-0.045,0.216c0.014-0.01-0.174,0.469-0.7,1.188
			c-0.005,0.007-0.021,0.034-0.024,0.038l0.02-0.033c-2.395,2.747-6.355,5.563-11.353,5.561c-0.015,0.001-1.264,0-1.99-0.001
			c-0.056-0.009-1.184-0.207-1.259-0.81c0,0,0-2.408,0.02-3.674c0.007-0.451,0.37-0.815,0.822-0.813
			c0.074,0,0.304,0.075,0.592,0.148c0.056,0.017,0.126,0.034,0.208,0.05c0.015,0.003,0.029,0.006,0.044,0.009
			c0.036,0.007,0.063,0.014,0.104,0.02c0.033,0.005,0.071,0.008,0.105,0.012c0.062,0.009,0.121,0.023,0.183,0.029
			c0,0,0.037,0.008,0.217,0.018c1.781,0.183,4.189,0.02,4.441,0.017C24.03,32.737,24.157,32.714,24.304,32.708z"/>
		<path fill="#888888" d="M60.038,74.894c3.514-3.38,4.694-8.426,4.835-10.962c2.417-0.444,11.723-2.443,12.85-13.541
			c1.194-11.752-5.798-15.858-10.446-16.359c-0.225-0.022-1.446-0.206-1.85-0.11c-1.056,0.442-0.99,0.993-1.112,1.836
			c-0.411,2.857-1.326,4.89-3.452,6.82l-1.621,1.172c0,0,0.385,0.847,0.533,1.524c0.003,0.013,0.878,2.697-0.021,4.773
			c-0.892,2.06-2.382,3.469-4.113,3.79c0.711-1.217,1.375-2.714,1.722-4.432c0.541-2.678-0.557-4.882-1.631-6.306
			c5.461-3.349,7.705-11.092,5.865-16.629c-2.585-6.161-7.3-9.212-13.229-8.648c-8.77,0.865-10.749,8.153-12.057,12.975
			c-0.439,1.615-0.853,3.14-1.388,3.993c-3.839,6.117-14.706,4.77-14.826,4.745c-1.838-0.373-2.817,0.409-2.93,1.284
			c-0.005,0.042-0.05,15.081,0,15.228c1.247,3.672,6.261,0.272,12.882,1.881c3.334,0.81,5.042,3.799,6.442,7.729
			c1.776,4.988,4.501,11.44,12.946,12.439C53.826,78.616,57.72,77.12,60.038,74.894z"/>
	</g>
</g>
</svg>
