<?xml version="1.0" encoding="utf-8"?>
<!-- Generator: Adobe Illustrator 17.0.0, SVG Export Plug-In . SVG Version: 6.00 Build 0)  -->
<!DOCTYPE svg PUBLIC "-//W3C//DTD SVG 1.1//EN" "http://www.w3.org/Graphics/SVG/1.1/DTD/svg11.dtd">
<svg version="1.1" id="图层_1" xmlns="http://www.w3.org/2000/svg" xmlns:xlink="http://www.w3.org/1999/xlink" x="0px" y="0px"
	 width="95px" height="95px" viewBox="0 0 95 95" enable-background="new 0 0 95 95" xml:space="preserve">
<g>
	<g>
		<path fill="#888888" d="M47.504,0.957v3c11.884,0,23.058,4.629,31.463,13.034c17.35,17.351,17.35,45.582,0,62.932
			C70.562,88.328,59.386,92.957,47.5,92.957s-23.061-4.628-31.466-13.034C7.629,71.518,3,60.343,3,48.457
			C3,36.57,7.629,25.396,16.034,16.99C24.438,8.587,35.613,3.958,47.5,3.957L47.504,0.957 M47.5,0.957
			C35.345,0.958,23.187,5.595,13.913,14.869c-18.55,18.55-18.55,48.625,0,67.175c9.275,9.275,21.431,13.912,33.587,13.912
			s24.313-4.637,33.588-13.912c18.549-18.55,18.549-48.625,0-67.175C71.812,5.593,59.658,0.956,47.5,0.957L47.5,0.957z"/>
	</g>
</g>
<path fill="#888888" d="M65.125,40.318c-1.362-2.409-2.988-5.014-4.837-7.749c-2.184-3.223-4.504-6.41-6.894-9.47
	c-0.821-1.054-3.142-3.91-3.161-3.934l-1.42-1.686c-0.326-0.386-0.805-0.611-1.312-0.611c-0.505,0-0.987,0.223-1.312,0.611
	l-1.444,1.71c0,0-2.316,2.854-3.137,3.908c-2.392,3.065-4.712,6.252-6.899,9.475c-1.837,2.718-3.463,5.323-4.832,7.746
	c-3.786,6.695-5.627,11.961-5.627,16.096c0,13.558,10.431,24.59,23.251,24.59c12.818,0,23.249-11.032,23.249-24.59
	C70.75,52.281,68.911,47.015,65.125,40.318z M47.5,75.587L47.5,75.587L47.5,75.587L47.5,75.587c-9.831,0-17.798-7.997-17.798-17.861
	c0-6.483,8.576-7.735,17.798,0c7.569,6.349,17.798-9.863,17.798,0C65.299,67.59,57.33,75.587,47.5,75.587z"/>
</svg>
