<?xml version="1.0" encoding="utf-8"?>
<!-- Generator: Adobe Illustrator 17.0.0, SVG Export Plug-In . SVG Version: 6.00 Build 0)  -->
<!DOCTYPE svg PUBLIC "-//W3C//DTD SVG 1.1//EN" "http://www.w3.org/Graphics/SVG/1.1/DTD/svg11.dtd">
<svg version="1.1" id="图层_1" xmlns="http://www.w3.org/2000/svg" xmlns:xlink="http://www.w3.org/1999/xlink" x="0px" y="0px"
	 width="95px" height="95px" viewBox="0 0 95 95" enable-background="new 0 0 95 95" xml:space="preserve">
<g>
	<g>
		<path fill="#888888" d="M47.504,0v3c11.884,0,23.057,4.629,31.463,13.034c17.35,17.351,17.35,45.582,0,62.932
			C70.561,87.371,59.387,92,47.5,92c-11.887,0-23.062-4.628-31.467-13.033c-17.351-17.351-17.351-45.583,0-62.933
			C24.438,7.629,35.613,3.001,47.5,3L47.504,0 M47.5,0C35.345,0.001,23.186,4.638,13.912,13.912c-18.55,18.55-18.55,48.625,0,67.175
			C23.187,90.362,35.344,95,47.5,95c12.156,0,24.312-4.637,33.588-13.912c18.549-18.55,18.549-48.625,0-67.175
			C71.812,4.636,59.658-0.001,47.5,0L47.5,0z"/>
	</g>
</g>
<g>
	<g>
		<path fill="#888888" d="M47.5,14.305c-7.179,0-13.02,5.841-13.02,13.022c0,0.916,0.741,1.659,1.657,1.659h22.725
			c0.916,0,1.657-0.743,1.657-1.659C60.52,20.146,54.679,14.305,47.5,14.305z"/>
		<path fill="#888888" d="M68.542,68.546c-2.458-12.275-4.91-17.106-7.264-29.394c-0.235-1.229,0.001-2.596,0.407-3.811
			c0.669-2.002-0.419-3.428-3.087-3.441c-7.45-0.036-14.9-0.03-22.349,0.009c-2.653,0.014-3.839,1.672-2.805,3.695
			c0.283,0.553,0.669,1.189,0.57,1.734c-0.873,4.82-6.168,23.565-7.631,31.877c-1.065,6.048,2.731,10.699,10.097,10.762
			c3.607,0.031,7.215,0.005,10.822,0.007c3.529,0.001,7.058,0.01,10.587,0C66.045,79.96,69.85,75.078,68.542,68.546z M56.382,64.356
			c0,0.058-0.023,0.199-0.037,0.257c0.005-0.005,0.005-0.005,0.005-0.005c0.014,0,0.005,0.072-0.019,0.157
			c-0.005,0.009-0.005,0.023-0.009,0.039l0.005,0.002c-0.023,0.118-0.051,0.224-0.093,0.322c-0.014,0.035-0.028,0.065-0.042,0.09
			c-0.005,0.016-0.074,0.185-0.083,0.201c-0.037,0.079-0.13,0.234-0.19,0.294c-0.023,0.028-0.116,0.157-0.139,0.181
			c-0.019,0.016-0.037,0.032-0.056,0.051c-0.051,0.065-0.116,0.125-0.19,0.183c-0.009,0.007-0.019,0.014-0.028,0.021
			c-0.019,0.014-0.032,0.025-0.046,0.037v0.002c-0.005,0.002,0.023-0.002-0.028,0.016c-0.139,0.109-0.213,0.16-0.282,0.199
			c-0.042,0.023-0.083,0.042-0.13,0.058c-0.069,0.032-0.139,0.06-0.208,0.088c-0.005,0-0.009,0.002-0.014,0.005v0.002
			c-0.037,0.014-0.069,0.025-0.106,0.035c-0.12,0.037-0.218,0.056-0.319,0.067c-0.153,0.028-0.259,0.032-0.356,0.032
			c-0.06,0-0.116,0.002-0.181-0.007c-0.056,0-0.148-0.014-0.204-0.028v-0.002c-0.13-0.007-0.231-0.046-0.287-0.069
			c-0.056,0.019-0.143-0.03-0.208-0.069c-0.005,0-0.005-0.002-0.009-0.002c-0.069-0.019-0.139-0.049-0.204-0.088
			c-0.051-0.019-0.102-0.046-0.143-0.074c-0.032-0.021-0.069-0.051-0.106-0.083c-0.069-0.053-0.194-0.146-0.213-0.164
			c0,0.002,0,0.002,0,0.002c-0.009,0-0.069-0.056-0.13-0.113c-0.028-0.03-0.06-0.065-0.083-0.102
			c-0.014-0.014-0.028-0.028-0.037-0.039c-0.042-0.042-0.079-0.088-0.106-0.139l-8.752-11.261v9.877
			c0,0.648-0.236,1.208-0.704,1.669c-0.884,0.903-2.439,0.923-3.337-0.012c-0.454-0.44-0.694-1.002-0.694-1.657V47.541
			c0-0.509,0.153-0.972,0.449-1.375c0.282-0.398,0.685-0.697,1.157-0.854c0.435-0.167,0.953-0.183,1.439-0.035
			c0.472,0.141,0.87,0.417,1.185,0.817l8.799,11.335v-9.889c0-0.643,0.231-1.201,0.685-1.662c0.926-0.93,2.448-0.93,3.356,0.005
			c0.458,0.449,0.694,1.009,0.694,1.657V64.356z"/>
	</g>
</g>
<g>
	<g>
		<path fill="#888888" d="M47.504,0v3c11.883,0,23.057,4.629,31.462,13.034C87.371,24.439,92,35.613,92,47.5
			c0,11.886-4.629,23.061-13.034,31.466C70.561,87.371,59.387,92,47.5,92c-11.887,0-23.062-4.628-31.467-13.033
			c-17.351-17.351-17.351-45.583,0-62.933C24.438,7.629,35.613,3.001,47.5,3L47.504,0 M47.5,0
			C35.345,0.001,23.186,4.638,13.912,13.912c-18.55,18.55-18.55,48.625,0,67.175C23.187,90.362,35.344,95,47.5,95
			s24.312-4.637,33.588-13.912c18.55-18.55,18.55-48.625,0-67.175C71.811,4.636,59.658-0.001,47.5,0L47.5,0z"/>
	</g>
</g>
</svg>
