<?xml version="1.0" encoding="UTF-8"?>
<svg width="20px" height="20px" viewBox="0 0 20 20" version="1.1" xmlns="http://www.w3.org/2000/svg" xmlns:xlink="http://www.w3.org/1999/xlink">
    <title>+</title>
    <g id="+" stroke="none" stroke-width="1" fill="none" fill-rule="evenodd">
        <g fill="#999999">
            <path d="M10,0 C15.5228475,0 20,4.4771525 20,10 C20,15.5228475 15.5228475,20 10,20 C4.4771525,20 0,15.5228475 0,10 C0,4.4771525 4.4771525,0 10,0 Z M10,1 C5.02943725,1 1,5.02943725 1,10 C1,14.9705627 5.02943725,19 10,19 C14.9705627,19 19,14.9705627 19,10 C19,5.02943725 14.9705627,1 10,1 Z" id="椭圆形" fill-rule="nonzero"></path>
            <g id="编组-4" transform="translate(4.000000, 4.000000)">
                <rect id="矩形" x="0.5" y="5.5" width="11" height="1"></rect>
                <rect id="矩形" transform="translate(6.000000, 6.000000) rotate(-270.000000) translate(-6.000000, -6.000000) " x="0.5" y="5.5" width="11" height="1"></rect>
            </g>
        </g>
    </g>
</svg>