<?xml version="1.0" encoding="UTF-8"?>
<svg width="28px" height="28px" viewBox="0 0 28 28" version="1.1" xmlns="http://www.w3.org/2000/svg" xmlns:xlink="http://www.w3.org/1999/xlink">
    <title>warm</title>
    <g id="warm" stroke="none" stroke-width="1" fill="none" fill-rule="evenodd">
        <circle id="Combined-Shape" fill="#E6A23C" cx="14" cy="14" r="14"></circle>
        <path d="M14,19.5 C14.8284271,19.5 15.5,20.1715729 15.5,21 C15.5,21.8284271 14.8284271,22.5 14,22.5 C13.1715729,22.5 12.5,21.8284271 12.5,21 C12.5,20.1715729 13.1715729,19.5 14,19.5 Z M14,5.5 C14.8284271,5.5 15.5,6.17157288 15.5,7 L15.5,16 C15.5,16.8284271 14.8284271,17.5 14,17.5 C13.1715729,17.5 12.5,16.8284271 12.5,16 L12.5,7 C12.5,6.17157288 13.1715729,5.5 14,5.5 Z" id="形状结合" fill="#FFFFFF"></path>
    </g>
</svg>