<?xml version="1.0" encoding="utf-8"?>
<!-- Generator: Adobe Illustrator 17.0.0, SVG Export Plug-In . SVG Version: 6.00 Build 0)  -->
<!DOCTYPE svg PUBLIC "-//W3C//DTD SVG 1.1//EN" "http://www.w3.org/Graphics/SVG/1.1/DTD/svg11.dtd">
<svg version="1.1" id="图层_1" xmlns="http://www.w3.org/2000/svg" xmlns:xlink="http://www.w3.org/1999/xlink" x="0px" y="0px"
	 width="95px" height="95px" viewBox="0 0 95 95" enable-background="new 0 0 95 95" xml:space="preserve">
<g>
	<g>
		<path fill="#888888" d="M47.504,0.479v3c11.884,0,23.058,4.629,31.463,13.034C87.372,24.917,92,36.092,92,47.979
			c0,11.886-4.629,23.061-13.034,31.466C70.561,87.85,59.386,92.478,47.5,92.478S24.439,87.85,16.034,79.445
			c-17.351-17.351-17.351-45.583,0-62.933C24.437,8.108,35.613,3.48,47.5,3.479L47.504,0.479 M47.5,0.479
			C35.345,0.48,23.186,5.117,13.913,14.391c-18.55,18.55-18.55,48.625,0,67.175c9.275,9.275,21.431,13.912,33.587,13.912
			s24.313-4.637,33.588-13.912c18.55-18.55,18.55-48.625,0-67.175C71.811,5.115,59.658,0.477,47.5,0.479L47.5,0.479z"/>
	</g>
</g>
<path fill="#888888" d="M60.965,21.386h-1.652v-0.652c0-2.611-2.124-4.735-4.735-4.735H41.572c-2.611,0-4.735,2.124-4.735,4.735
	v0.652H35.26c-4.105,0-7.441,3.339-7.441,7.441v44.647c0,4.102,3.336,7.441,7.441,7.441h25.706c4.105,0,7.441-3.339,7.441-7.441
	V28.827C68.407,24.725,65.07,21.386,60.965,21.386z M57.411,52.448L45.969,68.443c-0.432,0.601-1.229,0.825-1.913,0.547
	c-0.688-0.285-1.088-1.005-0.969-1.737l1.532-9.343l-4.505-0.006c-0.586-0.003-1.12-0.32-1.401-0.832
	c-0.279-0.512-0.259-1.133,0.054-1.626l11.186-17.595c0.298-0.47,0.813-0.739,1.347-0.739l0.541,0.093
	c0.704,0.256,1.139,0.963,1.046,1.705l-1.376,11l4.601,0.006c0.601,0,1.149,0.336,1.421,0.867
	C57.804,51.318,57.76,51.958,57.411,52.448z"/>
</svg>
