<?xml version="1.0" encoding="UTF-8"?>
<svg width="80px" height="80px" viewBox="0 0 80 80" version="1.1" xmlns="http://www.w3.org/2000/svg" xmlns:xlink="http://www.w3.org/1999/xlink">
    <!-- Generator: Sketch 52.2 (67145) - http://www.bohemiancoding.com/sketch -->
    <title>icon_player</title>
    <desc>Created with Sketch.</desc>
    <g id="home" stroke="none" stroke-width="1" fill="none" fill-rule="evenodd">
        <g id="home调整1.1" transform="translate(-437.000000, -1054.000000)" fill="#FFFFFF" fill-rule="nonzero">
            <g id="Group-3" transform="translate(0.000000, 812.000000)">
                <path d="M477,320 C497.98682,320 515,302.98682 515,282 C515,261.01318 497.98682,244 477,244 C456.01318,244 439,261.01318 439,282 C439,302.98682 456.01318,320 477,320 Z M477,322 C454.90861,322 437,304.09139 437,282 C437,259.90861 454.90861,242 477,242 C499.09139,242 517,259.90861 517,282 C517,304.09139 499.09139,322 477,322 Z M492.383,283.682357 L470.081515,298.019026 C469.152375,298.61633 467.914947,298.347324 467.317643,297.418184 C467.110261,297.09559 467,296.720172 467,296.336669 L467,267.663331 C467,266.558761 467.895431,265.663331 469,265.663331 C469.383503,265.663331 469.758921,265.773592 470.081515,265.980974 L492.383,280.317643 C493.31214,280.914947 493.581146,282.152375 492.983842,283.081515 C492.82891,283.32252 492.624006,283.527425 492.383,283.682357 Z" id="icon_player"></path>
            </g>
        </g>
    </g>
</svg>