<?xml version="1.0" encoding="UTF-8"?>
<svg width="19px" height="24px" viewBox="0 0 19 24" version="1.1" xmlns="http://www.w3.org/2000/svg" xmlns:xlink="http://www.w3.org/1999/xlink">
    <title>Fill 1</title>
    <g id="组件" stroke="none" stroke-width="1" fill="none" fill-rule="evenodd">
        <g id="footer-1920" transform="translate(-987.000000, -221.000000)" fill="#CCCCCC">
            <g id="newsletter" transform="translate(832.000000, 213.000000)">
                <g id="follow-us">
                    <g id="youtube" transform="translate(144.000000, 0.000000)">
                        <path d="M18.5670224,23.8521188 C18.1574382,25.929007 17.7005966,27.6144685 17.196561,28.9086312 C16.692399,30.2027298 15.9362192,31.2331006 14.9280847,32 C14.833507,30.8177742 14.7784787,29.859102 14.7626842,29.1243036 C14.7468896,28.3893771 14.833507,27.5106689 15.0225361,26.4881151 C15.2116916,25.4657534 15.3848631,24.6349084 15.5423663,23.9958363 C15.6999327,23.3568282 15.9047564,22.5660294 16.1568374,21.6233755 C16.4087921,20.6807217 16.5979476,19.8899228 16.7238617,19.2508507 C16.3458666,18.4201979 16.1961975,17.4935626 16.2749807,16.4710087 C16.3537639,15.448583 16.731759,14.6018477 17.4091556,13.9307387 C18.0865522,13.2598219 18.8662975,13.1000218 19.7484547,13.4514666 C20.3785308,13.7071211 20.7252528,14.1783839 20.7881782,14.8653833 C20.8511669,15.5523826 20.7488182,16.3112727 20.4810059,17.1419896 C20.2132567,17.9728346 19.9611757,18.7955423 19.7248892,19.6103688 C19.4886028,20.4251954 19.4570768,21.1441035 19.6303115,21.7670931 C19.8036724,22.3902108 20.2998108,22.7816377 21.1190425,22.9413737 C22.1902288,23.1651194 23.143335,22.8615377 23.9782349,22.0307568 C24.8131347,21.2000399 25.3959536,20.1535865 25.7268178,18.8914607 C26.0575557,17.6292709 26.1442361,16.3272912 25.9866697,14.9852013 C25.8291665,13.6431754 25.4038509,12.6207497 24.7106597,11.917732 C23.733988,10.8953063 22.5446584,10.3361342 21.1426079,10.2402798 C19.7405574,10.1443613 18.4567765,10.408025 17.2910124,11.0310146 C16.1253747,11.6541323 15.1801025,12.588841 14.4555118,13.8349483 C13.7308579,15.0811198 13.4787769,16.4391 13.6993952,17.9088249 C13.7623206,18.2603979 13.9356816,18.6756602 14.2192254,19.1549963 C14.5027059,19.6342684 14.6681064,20.0097409 14.7154269,20.2813497 C14.7626842,20.5530226 14.6287464,21.088103 14.3136768,21.8870392 C12.0137377,21.3438215 10.9110255,19.5065693 11.0056033,16.3750902 C11.0685919,14.1703747 11.8955945,12.3012137 13.4866742,10.767479 C15.0777539,9.23374438 16.9129541,8.33901777 18.9922749,8.08349144 C21.5758208,7.79592821 23.8600917,8.25117259 25.844961,9.44948088 C27.8298304,10.647661 28.9640054,12.397004 29.2476123,14.697638 C29.6571965,17.5094529 29.1373032,20.0416496 27.6879954,22.2943564 C26.2387507,24.5469992 24.2538814,25.5774982 21.7333872,25.3858534 C21.3867917,25.3538165 21.0559906,25.2819257 20.740921,25.1701169 C20.4258513,25.0583722 20.1895648,24.9544445 20.0319984,24.8585901 C19.8744952,24.7626716 19.6303115,24.5949264 19.2995736,24.3552903 C18.9687094,24.1156543 18.7245257,23.9479091 18.5670224,23.8521188" id="Fill-1"></path>
                    </g>
                </g>
            </g>
        </g>
    </g>
</svg>