<?xml version="1.0" encoding="UTF-8"?>
<svg width="12px" height="15px" viewBox="0 0 12 15" version="1.1" xmlns="http://www.w3.org/2000/svg" xmlns:xlink="http://www.w3.org/1999/xlink">
    <!-- Generator: Sketch 54.1 (76490) - https://sketchapp.com -->
    <title>Fill 1</title>
    <desc>Created with Sketch.</desc>
    <g id="Symbols" stroke="none" stroke-width="1" fill="none" fill-rule="evenodd">
        <g id="brand-logo/200复制-2" transform="translate(-168.000000, -13.000000)" fill="#E67F00">
            <g id="编组-2" transform="translate(168.000000, 12.000000)">
                <path d="M5.99850863,9.56979336 C4.49156846,9.56979336 3.2719293,8.37187088 3.2719293,6.89170024 C3.2719293,5.41159238 4.49156846,4.2136699 5.99850863,4.2136699 C7.50551273,4.2136699 8.72515189,5.41159238 8.72515189,6.89170024 C8.72515189,8.37187088 7.50551273,9.56979336 5.99850863,9.56979336 M5.99850863,1 C2.69144702,1 0,3.64352358 0,6.89170024 C0,10.0276305 5.37699248,15.5968631 5.60568281,15.8330115 C5.7083101,15.9395242 5.85194996,16 6.00149137,16 L6.01323055,16 C6.16569077,16 6.31224944,15.9309028 6.41195792,15.8157477 L8.27367277,13.7221979 C10.7481686,10.7475015 12,8.4496105 12,6.89462986 C12,3.64352358 9.30855298,1 5.99850863,1" id="Fill-1"></path>
            </g>
        </g>
    </g>
</svg>