<svg xmlns="http://www.w3.org/2000/svg" width="225" height="38.514" viewBox="0 0 225 38.514">
  <g id="组_3" data-name="组 3" transform="translate(-1218.357 68.729)">
    <g id="组_2" data-name="组 2" transform="translate(1218.357 -68.729)">
      <path id="路径_3" data-name="路径 3" d="M1255.095-41.58l-4.8,4.527h0c6.891,6.672,15.825,5.423,26.515-4.662l7.362-6.945-10.159-10.769-6.483,6.116,5.436,5.761c-9.034,8.522-13.918,8.891-17.872,5.972Z" transform="translate(-1236.027 64.407)" fill="#fff"/>
      <path id="路径_4" data-name="路径 4" d="M1252.716-60.053l4.8-4.527h0c-6.891-6.672-15.825-5.424-26.515,4.661l-7.362,6.946L1233.8-42.2l6.483-6.116-5.435-5.761c9.033-8.522,13.918-8.891,17.872-5.972Z" transform="translate(-1223.637 68.729)" fill="#fff"/>
    </g>
    <path id="路径_5" data-name="路径 5" d="M1342.418-49.4l-10.626-17h-3.962V-37.39h5.613V-54.668l7.057,11.335h3.8l7.1-11.4V-37.39h5.572V-66.4h-3.962Z" transform="translate(-48.603 -1.08)" fill="#fff"/>
    <path id="路径_6" data-name="路径 6" d="M1401.566-47.9a7.085,7.085,0,0,0-1.94-1.448,8.3,8.3,0,0,0-3.838-.867,9.1,9.1,0,0,0-4.911,1.362,9.493,9.493,0,0,0-3.426,3.715,11.257,11.257,0,0,0-1.238,5.324,11.166,11.166,0,0,0,1.238,5.283,9.494,9.494,0,0,0,3.426,3.715,9.1,9.1,0,0,0,4.911,1.362,8.145,8.145,0,0,0,3.838-.887,7.336,7.336,0,0,0,1.94-1.457v1.932h5.365V-49.8h-5.365Zm-1.114,11.945a4.786,4.786,0,0,1-3.673,1.506,4.994,4.994,0,0,1-2.62-.681,4.724,4.724,0,0,1-1.775-1.9,5.991,5.991,0,0,1-.64-2.827,5.9,5.9,0,0,1,.64-2.786,4.724,4.724,0,0,1,1.775-1.9,4.994,4.994,0,0,1,2.62-.681,5.08,5.08,0,0,1,2.662.681,4.73,4.73,0,0,1,1.774,1.9,5.9,5.9,0,0,1,.641,2.786A5.5,5.5,0,0,1,1400.452-35.951Z" transform="translate(-75.849 -8.652)" fill="#fff"/>
    <path id="路径_7" data-name="路径 7" d="M1444.285-56.319a7.382,7.382,0,0,0-1.8-1.268,8.424,8.424,0,0,0-3.859-.867,9.148,9.148,0,0,0-4.973,1.362,9.7,9.7,0,0,0-3.425,3.715,11.1,11.1,0,0,0-1.259,5.324,11.008,11.008,0,0,0,1.259,5.283,9.642,9.642,0,0,0,3.446,3.715,9.179,9.179,0,0,0,4.953,1.362,8.241,8.241,0,0,0,3.88-.908,7.51,7.51,0,0,0,1.815-1.319v1.814h5.366v-29.84h-5.407Zm-2.084,12.95a5.077,5.077,0,0,1-2.662.681,5.022,5.022,0,0,1-2.6-.681,4.683,4.683,0,0,1-1.8-1.9,5.985,5.985,0,0,1-.64-2.827,5.776,5.776,0,0,1,.64-2.766,4.908,4.908,0,0,1,1.775-1.9,4.958,4.958,0,0,1,2.662-.7,5,5,0,0,1,2.621.681,4.732,4.732,0,0,1,1.775,1.9,5.909,5.909,0,0,1,.64,2.786,6,6,0,0,1-.64,2.827A4.732,4.732,0,0,1,1442.2-43.368Z" transform="translate(-95.813 -0.364)" fill="#fff"/>
    <path id="路径_8" data-name="路径 8" d="M1493.745-49.813h13.125V-54.6h-13.125v-6.851h14.363V-66.4h-19.975V-37.39h20.182v-4.953h-14.569Z" transform="translate(-123.43 -1.08)" fill="#fff"/>
    <path id="路径_9" data-name="路径 9" d="M1537.456-36.787,1532.9-49.44h-5.861l7.557,18.22-4.751,10.051h5.737l3.632-8.172,8.873-20.1h-5.9Z" transform="translate(-141.595 -9.046)" fill="#fff"/>
    <path id="路径_10" data-name="路径 10" d="M1618.136-40.666a10.468,10.468,0,0,0-2.394-1.094q-1.259-.392-2.415-.7a7.967,7.967,0,0,1-1.878-.723,1.276,1.276,0,0,1-.722-1.156,1.144,1.144,0,0,1,.639-1.031,3.7,3.7,0,0,1,1.837-.372,6.074,6.074,0,0,1,2.456.5,5.47,5.47,0,0,1,2.043,1.609l3.261-3.26a8.214,8.214,0,0,0-3.322-2.6,11.157,11.157,0,0,0-4.478-.867,9.849,9.849,0,0,0-4.086.784,6.122,6.122,0,0,0-2.662,2.187,5.848,5.848,0,0,0-.929,3.3,5.417,5.417,0,0,0,.723,2.951,5.148,5.148,0,0,0,1.878,1.775,12.891,12.891,0,0,0,2.415,1.032q1.258.393,2.415.7a6.924,6.924,0,0,1,1.877.764,1.433,1.433,0,0,1,.723,1.279,1.2,1.2,0,0,1-.681,1.114,4.28,4.28,0,0,1-2,.371,7.632,7.632,0,0,1-3.013-.578,6.678,6.678,0,0,1-2.394-1.734l-3.219,3.261a9.312,9.312,0,0,0,2.352,1.96,12.349,12.349,0,0,0,2.993,1.259,12.331,12.331,0,0,0,3.322.454,8.831,8.831,0,0,0,5.737-1.713,5.67,5.67,0,0,0,2.1-4.643,5.533,5.533,0,0,0-.722-2.972A5.718,5.718,0,0,0,1618.136-40.666Z" transform="translate(-177.606 -8.58)" fill="#fff"/>
    <path id="路径_11" data-name="路径 11" d="M1580.8-38.9a5.6,5.6,0,0,1-5.5,4.585,5.6,5.6,0,0,1-5.6-5.6,5.6,5.6,0,0,1,5.6-5.6,5.537,5.537,0,0,1,1.9.337l-4.449,4.45,3.011,3.011,7.336-7.335.786-.787h.014a10.429,10.429,0,0,0-8.594-4.512,10.442,10.442,0,0,0-10.442,10.442,10.442,10.442,0,0,0,10.442,10.442,10.437,10.437,0,0,0,10.206-8.278Z" transform="translate(-159.316 -8.58)" fill="#fff"/>
  </g>
</svg>
