<?xml version="1.0" encoding="UTF-8"?>
<svg width="892px" height="80px" viewBox="0 0 892 80" version="1.1" xmlns="http://www.w3.org/2000/svg" xmlns:xlink="http://www.w3.org/1999/xlink">
    <title>形状结合</title>
    <g id="页面-1" stroke="none" stroke-width="1" fill="none" fill-rule="evenodd">
        <g id="画板" fill="#FFFFFF" fill-rule="nonzero">
            <path d="M116.481298,54.408546 C116.481298,68.5418959 104.799099,79.9981467 90.3887648,79.9981467 C75.9784306,79.9981467 64.2957151,68.5403476 64.2957151,54.408546 L64.2957151,1.63041384 L77.3412076,1.63041384 L77.3412076,54.408546 C77.4753712,61.5166609 83.2769046,67.2087911 90.3874743,67.2087911 C97.4980441,67.2087911 103.299577,61.5166609 103.433741,54.408546 L103.433741,1.63041384 L116.480266,1.63041384 L116.481298,54.408546 Z M45.6618046,14.419795 L45.6618046,1.63041384 L0,1.63041384 L0,78.3677328 L13.0465249,78.3677328 L13.0465249,52.7889706 L42.3993991,52.7889706 L42.3993991,39.9985572 L13.0460087,39.9985572 L13.0460087,14.419795 L45.6618046,14.419795 Z M134.823554,25.5890846 C134.823554,11.4562507 146.505753,0 160.916604,0 C175.327454,0 187.009137,11.4577991 187.009137,25.5890846 L187.009137,78.3672167 L173.962096,78.3672167 L173.962096,25.5890846 C173.827932,18.4809696 168.026399,12.7888394 160.915829,12.7888394 C153.80526,12.7888394 148.003726,18.4809696 147.869563,25.5890846 L147.869563,78.3672167 L134.823554,78.3672167 L134.823554,25.5890846 Z M324.245942,1.63041384 L311.316079,1.63041384 L296.522722,28.2826996 L281.729881,1.63041384 L268.799502,1.63041384 L289.999976,39.9985572 L289.999976,78.3672167 L303.045984,78.3672167 L303.045984,39.9985572 L324.245942,1.63041384 Z M248.156011,78.3672167 L263.206954,78.3672167 L233.868017,39.6135339 L259.945581,1.62731714 L244.894122,1.62731714 L222.439274,34.3383013 L222.439274,1.62989772 L209.390684,1.62989772 L209.390684,78.3672167 L222.437209,78.3672167 L222.437209,47.901858 L225.089462,47.901858 L248.156011,78.3672167 Z M719.822935,1.63041384 L719.822935,52.7889706 C719.822935,66.9161272 731.504618,78.3677328 745.915985,78.3677328 L765.485256,78.3677328 L765.485256,65.5783517 L745.915985,65.5783517 C738.781527,65.6476747 732.941184,59.9222168 732.869976,52.7889706 L732.869976,1.63041384 L719.822935,1.63041384 Z M408.371611,78.3677328 L424.680025,78.3677328 L408.555379,49.2303433 C416.476312,44.7216255 421.382307,36.3232433 421.418652,27.2102083 C421.418652,13.0835679 409.735936,1.63092996 395.325602,1.63092996 L367.602382,1.63092996 L367.602382,78.3677328 L380.649423,78.3677328 L380.649423,52.7889706 L394.218346,52.7889706 L408.371611,78.3677328 Z M380.648391,39.9985572 L380.648391,14.419795 L395.325602,14.419795 C399.953772,14.3316043 404.268629,16.7498237 406.608552,20.743214 C408.948475,24.7366043 408.948475,29.682264 406.608552,33.6756543 C404.268629,37.6690446 399.953772,40.087264 395.325602,39.9990733 L380.648391,39.9990733 L380.648391,39.9985572 Z M533.406916,1.63041384 L505.68318,1.63041384 L505.68318,78.3677328 L518.730737,78.3677328 L518.730737,52.7889706 L533.406916,52.7889706 C547.816734,52.7889706 559.499449,41.3368488 559.499449,27.2096922 C559.499449,13.0825356 547.816734,1.63041384 533.406916,1.63041384 Z M533.406916,39.9990733 L518.730737,39.9990733 L518.730737,14.419795 L533.406916,14.419795 C538.035086,14.3316043 542.349943,16.7498237 544.689866,20.743214 C547.029788,24.7366043 547.029788,29.682264 544.689866,33.6756543 C542.349943,37.6690446 538.035086,40.087264 533.406916,39.9990733 L533.406916,39.9990733 Z M696.818331,32.3352509 C699.373987,29.0382601 700.762587,24.9862522 700.766254,20.8150016 C700.766254,10.2201503 692.004734,1.63092996 681.196983,1.63092996 L648.581703,1.63092996 L648.581703,78.3677328 L681.196983,78.3677328 C695.607317,78.3677328 707.289517,66.915611 707.289517,52.7884545 C707.266604,44.689917 703.375563,37.0896085 696.818331,32.3352509 Z M681.197499,14.419795 C683.509875,14.378252 685.664604,15.5879057 686.832952,17.5835102 C688.001301,19.5791148 688.001301,22.0498562 686.832952,24.0454608 C685.664604,26.0410654 683.509875,27.2507191 681.197499,27.2091761 L661.627712,27.2091761 L661.627712,14.353732 C666.937896,14.3016042 681.197499,14.419795 681.197499,14.419795 Z M681.197499,65.5783517 L661.627712,65.5783517 L661.627712,39.9985572 L681.197499,39.9985572 C685.82567,39.9103665 690.140526,42.328586 692.480449,46.3219763 C694.820372,50.3153666 694.820372,55.2610262 692.480449,59.2544165 C690.140526,63.2478068 685.82567,65.6660262 681.197499,65.5778356 L681.197499,65.5783517 Z M626.512459,54.4095782 C626.512459,68.5418959 614.83026,79.9986628 600.419409,79.9986628 C586.008559,79.9986628 574.326876,68.5408637 574.326876,54.4095782 L574.326876,1.63041384 L587.374433,1.63041384 L587.374433,54.4095782 C587.508597,61.5176932 593.31013,67.2098233 600.4207,67.2098233 C607.53127,67.2098233 613.332803,61.5176932 613.466967,54.4095782 L613.466967,1.63041384 L626.514008,1.63041384 L626.512459,54.4095782 Z M784.119167,1.63041384 L797.165691,1.63041384 L797.165691,78.3677328 L784.119167,78.3677328 L784.119167,1.63041384 Z M486.69154,14.419795 L486.69154,1.63041384 L441.029219,1.63041384 L441.029219,78.3677328 L486.69154,78.3677328 L486.69154,65.5783517 L454.075744,65.5783517 L454.075744,43.1984831 L483.430167,43.1984831 L483.430167,30.4065214 L454.075744,30.4065214 L454.075744,14.419795 L486.69154,14.419795 Z M856.686525,0.00124450563 C871.168254,-0.0541504064 884.599714,7.5512877 892,19.9974722 L880.698759,26.3973239 C875.66729,17.9335847 866.534016,12.7616042 856.686525,12.7997035 C841.375416,12.7997035 828.963305,24.9774859 828.963305,39.9990733 C828.963305,55.0206608 841.375416,67.1984432 856.686525,67.1984432 C866.534274,67.2364903 875.667833,62.0645713 880.699791,53.6008227 L892,60.0037712 C884.599789,72.4500329 871.168281,80.0554983 856.686525,80 C834.169216,80 815.91678,62.0904325 815.91678,40.0006217 C815.91678,17.9108109 834.169216,0.00124450563 856.686525,0.00124450563 Z M856.685493,25.3238004 C860.578221,25.3238004 864.311505,26.8699573 867.064031,29.6221196 C869.816557,32.374282 871.362704,36.1069964 871.362704,39.9990733 C871.362704,45.9347141 867.786535,51.2858838 862.30178,53.557307 C856.817026,55.8287302 850.503833,54.5730815 846.306073,50.3758758 C842.108313,46.1786702 840.852676,39.866489 843.124672,34.3827319 C845.396668,28.8989748 850.748859,25.3238004 856.685493,25.3238004 Z" id="形状结合"></path>
        </g>
    </g>
</svg>