<?xml version="1.0" encoding="UTF-8"?>
<svg width="828px" height="666px" viewBox="0 0 828 666" version="1.1" xmlns="http://www.w3.org/2000/svg" xmlns:xlink="http://www.w3.org/1999/xlink">
    <title>Q</title>
    <g id="Q" stroke="none" stroke-width="1" fill="none" fill-rule="evenodd">
        <path d="M740.729236,493.092882 C788.473099,493.092882 827.182795,531.802578 827.182795,579.546441 C827.182795,627.290305 788.473099,666 740.729236,666 C692.985372,666 654.275677,627.290305 654.275677,579.546441 C654.275677,531.802578 692.985372,493.092882 740.729236,493.092882 Z M468.253768,48 C498.167538,48 526.35643,52.3360195 552.858562,60.9889992 C579.351165,69.6419788 604.13795,81.5827096 627.228445,96.792132 C650.30941,112.020614 670.636289,130.241426 688.21861,151.483156 C705.781871,172.734417 719.819139,196.215631 730.320883,221.926797 C737.658762,238.718152 743.300353,256.424359 747.236124,275.045419 C751.171896,293.666479 753.135017,312.954618 753.135017,332.881249 C753.135017,362.785489 751.36249,393.423517 740.222255,415.408566 C738.602204,418.620079 735.123859,422.603499 731.111849,427.072935 C726.861597,432.361926 711.985715,438.117872 703.570978,438.117872 C638.826106,438.117872 586.336445,490.607533 586.336445,555.352405 C586.336445,565.873209 585.316766,568.636825 583.582358,575.040793 C582.314906,579.738941 578.960447,584.951695 577.692995,587.038702 C573.671456,591.965564 569.125783,597.502327 560.25362,600.609013 C529.396408,611.425238 498.701202,617.409898 455.617368,617.762497 L455.617368,617.762497 L358.871719,617.762497 C328.967479,617.762497 300.645171,613.426478 273.885736,604.763968 C247.126301,596.110989 222.463403,584.189317 199.916102,568.960836 C176.816077,553.760943 156.489198,535.521072 138.925937,514.269811 C121.334086,493.02808 107.306348,469.556396 96.8141336,443.84523 C89.4667246,426.539271 83.8346641,408.690118 79.8988925,390.33589 C75.9631209,371.972133 74,352.817409 74,332.881249 C74,302.967479 78.3264898,274.645171 86.9794695,247.895266 C95.6419788,221.135831 107.56365,196.472933 122.792132,173.916102 C137.992025,150.844666 156.231896,130.508258 177.483156,112.916407 C198.724887,95.3531453 222.206101,81.3254073 247.917267,70.833193 C283.06285,55.6142409 320.047667,48 358.871719,48 L358.871719,48 Z M468.253768,158.173015 L358.871719,158.173015 C340.507961,158.173015 323.068586,160.803216 306.544063,166.035029 C290.019541,171.30496 274.924475,178.63331 261.287455,188.077255 C232.431483,206.974677 211.180223,232.419011 197.543203,264.410259 C188.613862,286.452486 184.173015,309.266619 184.173015,332.881249 C184.173015,351.254536 186.793686,368.560495 192.044558,384.827716 C197.276371,401.085407 204.62378,416.294829 214.077255,430.455983 C223.521201,444.102532 234.794852,456.424452 247.917267,467.45033 C261.020623,478.466678 275.458139,487.39602 291.201225,494.209765 C312.176124,503.139106 334.742485,507.579952 358.871719,507.579952 L358.871719,507.579952 L468.253768,507.579952 C486.617525,507.579952 503.933014,504.968811 520.200235,499.717939 C536.457926,494.467067 551.676878,487.119658 565.847562,477.675712 C579.475052,468.231766 591.81603,456.958116 602.832379,443.84523 C613.848727,430.732345 622.759009,416.294829 629.591814,400.551743 C638.502096,379.576844 642.962001,357.020012 642.962001,332.881249 C642.962001,314.517491 640.34133,297.068586 635.099988,280.553593 C629.839586,264.019541 622.501707,248.943534 613.067291,235.296985 C593.645735,206.450543 567.934569,185.208812 535.943321,171.562262 C514.949363,162.642451 492.383002,158.173015 468.253768,158.173015 L468.253768,158.173015 Z" id="形状结合" fill="#FFFFFF"></path>
    </g>
</svg>