<?xml version="1.0" encoding="UTF-8"?>
<svg width="98px" height="40px" viewBox="0 0 98 40" version="1.1" xmlns="http://www.w3.org/2000/svg" xmlns:xlink="http://www.w3.org/1999/xlink">
    <!-- Generator: Sketch 47 (45396) - http://www.bohemiancoding.com/sketch -->
    <title>Page 1 Copy</title>
    <desc>Created with Sketch.</desc>
    <defs>
        <polygon id="path-1" points="0.125988836 18.4521227 13.7954708 18.4521227 13.7954708 0.00582508186 0.125988836 0.00582508186"></polygon>
        <polygon id="path-3" points="0.132457072 0.124823183 21.4285808 0.124823183 21.4285808 18.9047587 0.132457072 18.9047587 0.132457072 0.124823183"></polygon>
    </defs>
    <g id="Symbols" stroke="none" stroke-width="1" fill="none" fill-rule="evenodd">
        <g id="Page-1-Copy">
            <g id="Group-3" transform="translate(83.908348, 20.859944)">
                <mask id="mask-2" fill="white">
                    <use xlink:href="#path-1"></use>
                </mask>
                <g id="Clip-2"></g>
                <path d="M0.125988836,0.00582508186 C1.37775704,4.31349121 3.02542828,8.49561054 5.0477097,12.498093 L4.76079729,13.1256461 C3.98685555,14.6776143 3.64779365,15.3049865 3.02163887,16.7086142 C2.63042748,17.4845078 2.49112157,17.7721439 2.2043896,18.4521589 C4.56952234,18.4521589 5.68252598,17.7721439 6.83901761,15.4969248 C7.2215675,14.7210311 7.60411739,13.8492588 8.04765872,13.0297674 L9.25648028,10.7109507 C10.9304969,7.4239402 12.3829234,4.02802602 13.6041959,0.546182831 L13.7954708,0.0145084337 L10.3694839,0.0145084337 L10.273666,0.258546801 C9.89111611,1.51401476 9.49990472,2.77798516 8.87393039,4.41696782 C8.2912636,5.87287648 8.00417074,6.59630823 7.28255894,8.14809557 C6.94331659,8.82811056 6.80437158,9.01968701 6.41297973,8.09581455 C5.4389211,5.57637619 4.33457897,2.42920386 3.76093458,0.250044353 L3.71726615,0.00582508186 L0.125988836,0.00582508186 Z" id="Fill-1" fill="#E67F00" mask="url(#mask-2)"></path>
            </g>
            <path d="M82.6691755,33.0615365 L82.6691755,14.2752857 C80.2082248,14.2752857 79.3388261,14.859422 79.3388261,16.7947241 L79.3388261,30.1151667 C79.3388261,32.1461665 79.7735255,33.0615365 82.6691755,33.0615365" id="Fill-4" fill="#E67F00"></path>
            <path d="M68.6779366,33.0615365 L68.6779366,25.5558643 C68.6779366,23.7600386 69.3562409,23.0364259 71.0952188,23.0364259 C73.0779821,23.0364259 73.7997744,23.6641599 73.7997744,25.4075237 L73.7997744,33.0528532 C76.8865189,33.0528532 77.1301238,31.9893235 77.1301238,30.2021811 L77.1301238,25.2157663 C77.2607682,23.9935846 76.8545796,22.7748399 76.0171201,21.8770175 C75.1475409,21.0577071 73.6518069,20.6215496 71.5300986,20.6215496 C69.112636,20.6215496 65.3997367,20.9616475 65.3997367,24.6491776 L65.3997367,30.0627048 C65.3997367,32.1984475 65.7909481,33.0615365 68.6865981,33.0615365" id="Fill-6" fill="#E67F00"></path>
            <path d="M19.9738681,29.4263417 C19.9738681,30.8299694 19.7825931,31.605863 17.9999467,31.7015608 L17.9999467,31.7540227 L17.191359,31.7540227 C15.50435,31.7540227 14.6782588,31.1698864 14.6782588,29.9145994 C14.6782588,28.6593123 15.4520201,27.9792973 17.3304844,27.5869184 L17.3304844,27.5418735 C18.2015072,27.3611512 19.0853418,27.2479058 19.9738681,27.2034037 L19.9738681,29.4263417 Z M18.2433712,20.7697635 C17.9355268,20.7601757 17.6273215,20.7746479 17.3216425,20.8135421 C16.2822616,20.9302247 15.2704894,21.2250968 14.330355,21.6851336 C14.095592,22.4087462 13.8521676,23.0887612 13.6087432,23.8123739 C14.7031606,22.9977669 15.9816352,22.4675397 17.3304844,22.2692699 L17.9043093,22.2692699 C18.8695259,22.2692699 19.5478302,22.5569059 19.7825931,23.1410422 C19.9738681,23.5334212 20.0260176,23.8297406 20.0260176,25.4685423 L20.0260176,25.7999569 L19.7391051,25.7999569 C18.8173764,25.8956547 18.0520962,26.0005785 17.3216425,26.0962763 L17.3216425,26.1501854 C14.0932462,26.7261811 12.695676,27.9463729 12.695676,30.1237234 C12.695676,32.3030638 14.095592,33.2708958 16.8956046,33.2708958 L17.3304844,33.2708958 L17.330304,33.2618506 C17.684704,33.268544 18.0392844,33.2513582 18.3911581,33.2097505 C20.9477463,33.0615908 21.8694749,31.8063037 21.8694749,29.6267824 L21.8694749,25.1722229 C21.9676387,24.204391 21.8333853,23.2267903 21.4780831,22.3217318 C20.9564078,21.3016188 19.8434041,20.7697635 18.2433712,20.7697635 L18.2433712,20.7697635 Z M10.0434504,21.1621425 C9.5937738,22.7072364 9.05964754,24.2264612 8.44341741,25.7127616 C7.87320153,27.2520666 7.21420522,28.757 6.46967652,30.219783 C5.9826472,31.0913744 5.73922276,30.8473361 5.50427939,30.2631998 C4.19242198,27.3244279 3.09403464,24.2944808 2.21741795,21.1970568 L2.17392997,20.9181041 L7.21792245e-05,20.9181041 C0.986762178,24.5716244 2.36267864,28.1081004 4.10436333,31.4662058 C5.11306799,33.4016887 6.56513354,33.2620315 7.62616814,31.4139248 C9.46637747,28.2683806 10.9424426,24.9223957 12.0260332,21.4410952 L12.2348116,20.9181041 L10.1390878,20.9181041 L10.0434504,21.1621425 Z M30.0693957,20.8571398 L30.0345693,22.4174296 C32.3998825,22.7052465 33.704161,24.3963293 33.704161,26.87217 C33.8810001,29.1444946 32.2815085,31.1700673 30.0345693,31.5184868 L30.0345693,31.5099844 C29.4930446,31.6130992 28.9424976,31.6626666 28.3912288,31.6581441 C27.71112,31.6624857 27.0322744,31.598446 26.3651579,31.4662058 L26.3651579,25.459859 C26.3651579,23.1410422 27.9563489,22.1733912 29.8869628,22.3651485 C29.9416385,22.3580933 29.9964947,22.37745 30.0345693,22.4174296 L30.0345693,20.8658231 L29.8432943,20.8658231 C27.0867697,20.5781871 24.3390871,21.7810122 24.3390871,25.1286253 L24.3390871,36.9321949 C24.3390871,38.3879226 24.3912366,39.3034735 26.3651579,39.3034735 L26.3651579,33.0093098 C27.0537477,33.104103 27.7481119,33.1507761 28.4433783,33.1487861 C28.9749783,33.1439017 29.5062173,33.1118819 30.0345693,33.0529074 L30.0345693,33.0704551 C33.5563741,32.5297355 35.7129089,30.1586377 35.7129089,26.7153269 C35.7129089,23.2718352 33.7389875,21.2929355 30.0693957,20.8571398 L30.0693957,20.8571398 Z M43.4084773,26.8198889 L49.1997774,26.8198889 L49.1997774,26.1485573 C49.1997774,22.7139298 47.2171945,20.7786278 43.7477197,20.7786278 L43.4084773,20.7786278 L43.3998158,22.2692699 L43.7388777,22.2692699 C45.4495253,22.0959646 46.9764768,23.3454628 47.1495265,25.0602439 C47.1614361,25.1785545 47.1666691,25.2974079 47.1650451,25.4162613 L43.4084773,25.4162613 L43.4084773,26.8198889 Z M37.5128783,27.3079657 C37.5128783,30.8909337 39.7388855,33.1138718 43.3998158,33.3056292 L43.9303331,33.2969458 C45.5487718,33.3495886 47.1457371,32.9121648 48.5128116,32.0416588 L48.5128116,30.2545164 C47.27981,31.2778856 45.7220019,31.8252986 44.1216081,31.7974395 L43.3998158,31.7974395 C41.1676733,31.7296008 39.4129963,29.8606902 39.4806644,27.6229181 C39.4819275,27.5789586 39.4840929,27.5349992 39.4867996,27.4912206 C39.4867996,27.34288 39.4433116,27.107525 39.4433116,26.8198889 L43.3998158,26.8198889 L43.3998158,25.4162613 L39.6867361,25.4162613 C39.9924151,23.5994508 41.5619523,22.2692699 43.3998158,22.2692699 L43.3998158,20.7697635 C39.8781915,20.9181041 37.5128783,23.4811402 37.5128783,27.3079657 L37.5128783,27.3079657 Z" id="Fill-8" fill="#FFFFFF"></path>
            <g id="Group-12" transform="translate(42.405294, 0.056080)">
                <mask id="mask-4" fill="white">
                    <use xlink:href="#path-3"></use>
                </mask>
                <g id="Clip-11"></g>
                <path d="M14.8291675,18.5867327 C15.2012514,18.4224726 15.4836526,18.104264 15.6031093,17.7149604 C15.7162502,17.2529337 15.0031195,16.843188 14.3336572,16.4073923 C14.2125765,16.3433526 14.0961875,16.2704486 13.9857533,16.189404 C13.6640144,15.980099 13.3511175,15.7622916 13.0291981,15.5180724 C12.8568702,15.4006662 12.7975028,15.1736327 12.8900727,14.986398 C13.0167472,14.7206512 13.2686527,14.5370345 13.5597154,14.4981403 C14.2360348,14.4051561 14.9067602,14.2741822 15.5684632,14.1059423 C15.6379357,14.1059423 15.6727622,14.1059423 15.6727622,14.0011993 L15.6727622,13.8966373 C15.0316303,13.5379063 14.3556718,13.2457477 13.6553529,13.024865 L13.307449,12.8506552 L12.9510641,12.7111789 C11.6060043,12.3121065 10.3887016,11.5666046 9.42059779,10.5492052 C9.30890044,10.4023118 9.30890044,10.1989766 9.42059779,10.0522642 C9.50053628,9.83319044 9.68820227,9.67146301 9.91610817,9.6249709 C11.2090185,9.37767628 12.5365749,9.37767628 13.8293048,9.6249709 C15.0078111,9.81672825 16.206708,9.85182347 17.3944172,9.72971383 C17.68151,9.65120186 18.0292334,9.59023749 18.1075479,9.37224918 C18.1858624,9.15426087 17.7944705,8.88417245 16.9422143,8.56162211 C12.3510743,6.81807742 7.15976404,6.44324606 2.68140405,4.74329904 C2.02962566,4.51662737 1.42097435,4.1806902 0.881434644,3.74941706 C0.363909605,3.44586155 0.0741100187,2.86461968 0.142319386,2.26745834 C0.381954411,1.60408644 0.920411425,1.09321591 1.59456538,0.890061654 C6.7162227,-1.23699774 17.2464498,1.49156467 21.1509849,3.93249106 C21.4032513,4.0719674 21.4725433,4.32487002 21.4032513,4.39451774 C21.3335983,4.46434636 21.2639454,4.39451774 21.2292994,4.39451774 C21.0553474,3.61862407 4.98572579,0.183996608 1.83798982,2.52018006 C1.76851731,2.69457071 1.9422888,2.83404705 2.4728061,3.08694967 C2.81493562,3.26622471 3.16951606,3.4205351 3.53366025,3.54897635 C3.61522277,3.58949866 3.69949202,3.62459387 3.78574619,3.65353838 C7.80306137,5.03961842 12.4032238,5.57147372 16.5944909,6.80921316 C16.9857023,6.9486895 17.5856921,7.12308015 18.1508554,7.34106846 C19.5596135,7.87274286 20.3770432,8.43951247 20.6639556,9.08461315 C20.8785083,9.46867057 20.8478322,9.94317957 20.5856411,10.2963025 C19.4901409,11.4993086 14.863994,11.0721962 12.3595554,10.8192936 C12.2864739,10.8180273 12.2189863,10.8587305 12.1857839,10.9240365 C12.1857839,10.9240365 12.1857839,11.0285985 12.2552564,11.0721962 C12.796781,11.3705055 13.3644706,11.6185238 13.9511073,11.8131756 C14.1459912,11.9088733 14.3462885,11.9933551 14.5509166,12.0660782 C14.7703415,12.1339169 14.9850747,12.2155042 15.1943944,12.3101166 C16.1619569,12.6259735 17.0679866,13.1068141 17.8726045,13.7311109 C18.0209328,13.8494216 18.0799394,14.0476914 18.0205719,14.227871 C17.950919,14.4751656 17.7661402,14.6734355 17.5248811,14.7597263 C16.8799597,14.9918251 16.2166327,15.1698338 15.5422983,15.2915816 C15.5422983,15.2915816 15.4379993,15.3612293 15.4379993,15.3961436 L15.4379993,15.53562 C16.0531467,15.8487633 16.5306123,16.3800759 16.7771044,17.026262 C16.9510563,17.7323271 16.464027,18.4734873 15.0379459,18.8656854 C14.6119081,18.9702474 14.1683667,18.8656854 14.933647,18.5431351" id="Fill-10" fill="#FFFFFF" mask="url(#mask-4)"></path>
            </g>
            <path d="M57.3650341,20.5606757 C53.9072884,20.5653792 51.1079976,23.3795088 51.1128697,26.8459752 C51.1175613,30.3124416 53.9246114,33.1187924 57.3823571,33.113908 C60.8366744,33.1090236 63.6345216,30.3003211 63.6345216,26.8372918 C63.6345216,23.3708254 60.8314414,20.5606757 57.3736956,20.5606757 L57.3650341,20.5606757 M57.3650341,29.9842833 C55.6361612,29.9842833 54.2344407,28.5792084 54.2344407,26.8459752 C54.2344407,25.112742 55.6361612,23.7076671 57.3650341,23.7076671 C59.093907,23.7076671 60.4954471,25.112742 60.4954471,26.8459752 C60.4954471,28.5792084 59.093907,29.9842833 57.3650341,29.9842833" id="Fill-15" fill="#E67F00"></path>
        </g>
    </g>
</svg>